<?xml version="1.0" standalone="no"?>
<!DOCTYPE svg PUBLIC "-//W3C//DTD SVG 20010904//EN"
 "http://www.w3.org/TR/2001/REC-SVG-20010904/DTD/svg10.dtd">
<svg version="1.0" xmlns="http://www.w3.org/2000/svg"
 width="750.000000pt" height="750.000000pt" viewBox="0 0 750.000000 750.000000"
 preserveAspectRatio="xMidYMid meet">
<metadata>
Created by potrace 1.14, written by Peter Selinger 2001-2017
</metadata>
<g transform="translate(0.000000,750.000000) scale(0.100000,-0.100000)"
fill="#000000" stroke="none">
<path d="M1 4593 c1 -1600 3 -2899 6 -2888 8 31 19 38 42 26 15 -8 21 -21 21
-45 0 -21 11 -48 31 -76 29 -40 34 -57 42 -138 2 -18 10 -38 18 -43 7 -5 10
-9 5 -9 -6 0 -3 -6 6 -12 8 -7 23 -49 32 -93 10 -44 21 -89 26 -100 4 -11 13
-57 19 -103 14 -110 25 -123 32 -38 4 50 11 73 24 82 24 18 38 6 55 -45 10
-30 10 -50 2 -81 -8 -35 -8 -42 5 -47 9 -3 24 -1 34 5 29 18 56 14 73 -10 11
-15 27 -22 55 -24 52 -2 61 -9 61 -50 0 -61 53 -86 75 -36 12 27 31 29 38 2 6
-22 41 -38 105 -47 33 -4 46 -12 54 -29 6 -13 17 -24 24 -24 7 0 24 -14 37
-32 17 -21 40 -35 71 -43 25 -7 47 -8 48 -3 2 5 19 -2 38 -16 19 -14 46 -31
60 -38 14 -7 27 -15 30 -18 12 -12 51 -30 65 -30 36 0 1 -19 -38 -20 -42 -2
-798 -3 -839 -1 -13 0 -52 -2 -88 -5 -48 -4 -61 -2 -50 6 11 8 1 10 -40 5 -30
-3 -73 -5 -95 -5 -22 0 -50 -2 -62 -5 l-23 -5 0 -280 0 -280 3750 0 3750 0 0
280 0 280 -690 0 c-545 0 -690 3 -691 13 -7 105 14 207 43 207 10 0 18 5 18
11 0 6 9 22 20 36 16 20 17 29 9 40 -9 11 -9 12 3 8 19 -8 48 20 48 45 0 10 5
21 10 23 6 3 5 4 -2 3 -7 -1 -18 -12 -24 -24 -6 -12 -13 -19 -17 -16 -3 3 -1
14 6 25 14 22 3 36 -16 20 -8 -6 -25 -10 -38 -9 -19 2 -23 -1 -21 -17 2 -11 9
-23 15 -27 13 -9 -8 -28 -30 -28 -7 0 -13 -6 -13 -14 0 -17 -26 -27 -70 -28
-23 -1 -30 -6 -35 -29 -7 -31 -25 -38 -130 -46 -76 -6 -87 -14 -82 -55 3 -20
-2 -29 -21 -38 -19 -8 -27 -8 -32 0 -4 7 -11 10 -16 8 -5 -1 -15 9 -22 25 -7
15 -19 27 -27 27 -26 0 -45 -12 -45 -30 0 -24 -18 -37 -63 -45 -21 -4 -41 -14
-44 -21 -3 -9 -23 -15 -57 -16 l-51 -1 45 -7 c40 -6 41 -7 12 -8 -19 -1 -31
-6 -27 -12 4 -6 -13 -10 -44 -10 -54 0 -69 15 -26 26 14 3 22 10 19 15 -3 6
-15 7 -27 4 -20 -5 -20 -5 -4 5 23 15 5 40 -28 40 -29 0 -38 10 -24 27 9 10 5
13 -20 13 -23 0 -31 -5 -31 -17 -1 -17 -1 -17 -14 -1 -14 19 -66 25 -66 8 0
-5 5 -10 10 -10 6 0 10 -4 10 -10 0 -5 -8 -10 -18 -10 -10 0 -27 -7 -39 -15
-21 -15 -21 -17 -5 -35 11 -14 30 -20 62 -21 42 -1 41 -2 -24 -14 -48 -8 -206
-13 -512 -14 l-441 -1 -12 63 c-7 34 -22 101 -34 149 -25 103 -19 121 35 100
26 -10 35 -9 49 4 9 8 20 14 25 13 28 -5 43 2 38 18 -9 28 -38 87 -50 103 -17
21 -74 189 -79 233 -4 28 -1 37 9 37 29 0 66 -20 66 -36 0 -11 5 -14 16 -10 9
3 20 6 25 6 11 0 12 61 1 75 -4 6 -20 16 -36 23 -24 11 -31 10 -46 -3 -9 -8
-22 -15 -28 -15 -6 0 -12 -10 -14 -22 -2 -18 -10 -24 -39 -26 -30 -3 -38 -8
-49 -37 -10 -25 -23 -38 -46 -45 -18 -6 -38 -18 -44 -26 -7 -7 -23 -14 -36
-14 -13 0 -28 -9 -34 -20 -8 -15 -21 -20 -56 -20 -41 0 -46 -3 -58 -30 l-12
-31 -26 21 c-15 11 -31 20 -37 20 -6 0 -11 5 -11 11 0 5 -5 7 -10 4 -6 -3 -10
-22 -10 -41 0 -38 -6 -41 -37 -19 -12 8 -23 11 -25 6 -2 -6 -33 -12 -70 -14
-78 -5 -93 5 -90 58 3 41 -16 59 -42 40 -18 -13 -18 -16 -2 -39 20 -31 20 -75
1 -100 -23 -31 -19 -47 13 -44 23 3 27 -1 30 -24 4 -37 -23 -75 -71 -98 -52
-25 -51 -25 -66 7 l-13 28 -18 -23 c-21 -25 -33 -28 -49 -8 -20 24 -122 -5
-135 -39 -7 -20 -36 -19 -36 1 0 14 -1 14 -16 0 -8 -9 -23 -16 -32 -16 -9 0
-30 -9 -47 -20 -16 -11 -40 -20 -52 -20 -13 0 -23 -3 -23 -6 0 -12 35 -33 54
-34 16 0 17 -5 11 -37 -4 -21 -8 -44 -8 -50 0 -7 -7 -13 -14 -13 -8 0 -11 5
-8 10 7 11 8 11 -60 14 -28 2 -57 -3 -65 -10 -17 -13 -60 -2 -60 16 0 6 -4 9
-9 5 -5 -3 -12 -1 -16 5 -10 15 -35 12 -35 -5 0 -8 -7 -15 -15 -15 -8 0 -15
-4 -15 -10 0 -14 -78 -12 -82 2 -5 13 -95 19 -131 10 -20 -5 -20 -6 -1 -13 15
-6 11 -8 -16 -9 l-35 -2 30 -8 c26 -7 24 -8 -20 -9 -147 -5 -287 -11 -342 -16
-40 -4 -63 -2 -63 5 0 5 -12 10 -26 10 -14 0 -23 -4 -19 -10 12 -19 -85 -11
-114 9 -16 12 -36 18 -48 15 -12 -3 -24 -1 -27 5 -4 6 -3 11 3 11 7 0 7 9 -1
25 -7 15 -17 24 -25 21 -15 -6 -40 28 -57 78 -12 36 -69 106 -86 106 -5 0 -10
11 -10 24 0 14 -4 27 -9 30 -4 3 -11 20 -15 37 -3 17 -17 40 -31 51 -14 11
-25 30 -25 43 0 41 -10 55 -35 49 -32 -8 -87 33 -79 58 3 12 -2 25 -16 36 -11
9 -29 44 -38 77 -13 41 -25 64 -41 71 -12 6 -21 13 -19 15 1 2 -5 15 -15 29
-9 13 -17 36 -17 50 0 17 -9 30 -30 42 -17 9 -35 29 -40 43 -5 14 -16 25 -23
25 -8 0 -22 9 -31 19 -10 11 -28 22 -42 25 -15 4 -24 14 -24 26 0 23 -35 28
-43 6 -6 -14 10 -36 26 -36 13 0 34 -24 41 -48 4 -12 13 -22 19 -22 7 0 17
-10 22 -22 6 -13 19 -25 29 -27 26 -4 56 -42 50 -62 -2 -9 2 -21 10 -28 8 -6
17 -27 20 -46 4 -19 18 -43 31 -54 14 -10 25 -27 25 -36 0 -9 7 -33 16 -52 16
-33 16 -36 -3 -61 -13 -16 -29 -26 -41 -25 -11 1 -26 -4 -32 -12 -17 -20 -66
-19 -74 1 -3 8 -10 12 -16 9 -12 -7 -53 19 -44 28 10 9 -31 56 -43 49 -11 -8
-27 -43 -24 -55 1 -5 -18 -6 -41 -2 -24 4 -62 8 -85 9 -64 4 -105 24 -97 48 5
18 2 20 -35 16 -23 -2 -41 -1 -41 3 0 4 -9 9 -20 12 -11 3 -24 16 -29 30 -8
20 -19 27 -55 32 -25 4 -52 5 -61 1 -9 -3 -19 3 -25 14 -6 11 -17 20 -25 20
-8 0 -22 11 -31 25 -9 14 -23 25 -31 25 -10 0 -12 6 -7 23 3 12 11 24 15 25 5
2 6 8 3 13 -4 6 -11 6 -19 -1 -17 -14 -60 3 -74 28 -6 11 -24 25 -41 32 -29
12 -39 33 -22 44 5 3 8 26 7 52 -1 37 -6 50 -26 64 -66 50 -65 48 -51 61 22
24 12 47 -38 90 -51 43 -66 83 -35 95 21 9 19 24 -5 24 -16 0 -65 17 -80 28
-2 2 2 7 10 12 12 7 12 12 -3 28 -11 12 -17 35 -17 65 0 25 -5 49 -10 52 -6 3
-10 18 -10 32 0 14 -13 42 -28 62 -23 29 -27 41 -21 63 5 21 3 30 -8 37 -11 6
-14 14 -8 27 4 11 7 29 6 41 -2 23 14 39 24 23 3 -5 15 -10 27 -10 14 0 18 5
14 16 -3 8 1 23 10 32 15 15 16 15 10 -4 -8 -25 12 -53 42 -57 12 -2 28 -9 34
-15 7 -7 18 -12 25 -12 7 0 19 -13 28 -30 9 -18 23 -30 36 -30 11 0 22 -7 25
-15 3 -8 14 -17 25 -20 10 -4 19 -12 19 -20 0 -13 28 -27 46 -24 23 4 43 -3
64 -21 13 -11 31 -20 42 -20 11 0 18 -7 18 -20 0 -17 5 -19 24 -14 13 3 35 0
48 -7 12 -7 39 -13 58 -14 36 -2 119 -47 121 -65 1 -6 3 -14 4 -20 1 -5 3 -14
4 -18 0 -5 12 -14 24 -19 18 -9 24 -20 25 -48 2 -55 9 -69 42 -88 16 -10 30
-24 30 -32 0 -7 11 -26 24 -42 13 -15 26 -38 30 -50 4 -13 14 -23 22 -23 8 0
14 -4 14 -10 0 -17 26 -11 44 9 21 23 12 45 -15 38 -23 -6 -35 9 -37 46 -2 37
-9 47 -32 47 -26 0 -37 26 -35 80 2 50 -8 70 -36 70 -15 0 -19 8 -19 38 0 26
-7 45 -20 57 -11 10 -20 27 -20 37 0 10 -12 30 -26 45 -15 15 -23 32 -19 41 3
8 -1 22 -9 31 -8 9 -16 25 -18 36 -2 14 -12 21 -35 23 -24 2 -32 9 -36 28 -3
18 0 24 14 24 21 0 22 5 9 35 -8 19 -9 19 -9 1 -1 -20 -28 -45 -48 -46 -7 0
-24 11 -39 25 -22 20 -27 34 -27 70 0 40 -3 44 -26 47 -20 2 -27 9 -29 31 -2
16 -10 31 -18 34 -8 3 -14 13 -14 23 0 29 -26 83 -55 115 -27 28 -28 32 -30
169 -3 152 -9 191 -31 200 -20 8 -17 23 4 29 24 6 37 64 20 86 -25 31 -38 61
-38 87 0 39 -32 135 -47 141 -18 7 -16 32 2 39 12 5 13 10 4 20 -8 10 -8 14 0
14 6 0 11 9 11 20 0 18 -4 20 -35 14 -38 -7 -47 6 -18 28 22 16 25 27 28 102
1 35 -3 63 -10 70 -9 8 -10 18 -3 36 7 20 5 27 -14 41 -22 17 -22 18 -4 38 13
14 17 29 13 49 -3 17 0 41 9 57 13 25 13 30 -2 46 -10 11 -13 25 -9 38 4 13 2
21 -5 21 -7 0 -7 7 2 23 15 28 20 150 6 158 -12 7 11 69 24 69 5 0 8 5 8 10 0
6 -6 10 -14 10 -14 0 -26 36 -18 58 2 7 12 12 22 12 10 0 21 4 25 9 6 11 -29
34 -38 25 -3 -3 -11 -3 -17 1 -8 5 -6 12 5 25 11 12 13 20 6 24 -10 6 3 42 20
56 16 13 26 47 18 65 -12 32 -10 42 11 48 20 5 26 30 21 85 -1 13 4 22 12 22
27 0 69 42 63 62 -3 13 4 28 20 43 14 13 24 34 24 49 0 23 3 26 24 20 24 -6
66 10 66 24 0 4 -10 12 -22 17 -39 18 -31 32 19 34 143 9 221 -4 224 -35 1 -8
2 -19 3 -25 0 -6 9 -17 19 -24 13 -10 17 -20 12 -36 -4 -13 -2 -24 4 -29 9 -5
9 -13 0 -32 -8 -19 -8 -31 0 -47 7 -12 9 -26 5 -32 -8 -14 27 -47 46 -42 10 3
9 0 -3 -10 -16 -13 -17 -24 -11 -87 6 -66 9 -73 34 -84 26 -10 27 -13 14 -31
-13 -18 -19 -57 -9 -66 2 -3 32 -2 65 1 49 5 68 2 91 -12 16 -10 29 -22 29
-28 0 -13 -17 -13 -22 1 -2 5 -21 12 -43 14 -84 9 -127 -18 -79 -50 20 -13 28
-14 39 -5 11 9 30 9 70 3 39 -7 55 -7 57 1 0 6 2 16 2 21 1 6 5 16 9 23 5 6 5
17 2 22 -4 6 0 22 9 35 9 13 16 33 16 45 0 17 6 20 38 20 33 -1 35 -2 20 -14
-21 -15 -13 -26 18 -26 38 0 54 -11 54 -36 0 -19 5 -24 24 -24 32 0 42 17 22
39 -9 10 -16 30 -16 44 0 22 -5 27 -24 27 -19 0 -22 4 -18 25 3 18 0 25 -12
25 -21 0 -20 10 1 40 10 14 17 27 15 30 -1 4 28 6 178 10 29 1 125 23 203 46
16 5 49 48 84 108 7 11 22 24 34 28 11 5 19 14 16 21 -13 35 57 77 133 80 14
1 31 8 39 15 11 11 30 13 72 9 60 -7 83 5 90 47 4 18 58 56 86 60 20 3 50 36
64 68 11 27 10 32 -6 44 -32 24 -84 28 -105 9 -13 -12 -23 -14 -37 -7 -26 15
-113 26 -113 15 0 -5 6 -15 12 -21 10 -10 10 -15 -2 -22 -8 -5 -23 -10 -32
-10 -10 0 -23 -10 -29 -22 -19 -36 -41 -47 -92 -48 -67 0 -132 -38 -121 -72 4
-15 0 -18 -31 -18 -30 0 -36 3 -31 16 9 22 -24 47 -42 32 -9 -8 -16 -8 -24 0
-7 7 -22 12 -35 12 -35 0 -28 18 13 35 25 10 41 12 49 5 6 -5 33 -12 59 -14
60 -6 58 15 -2 27 -47 9 -54 27 -20 51 30 21 51 20 73 -4 22 -24 35 -26 35 -5
0 8 -6 15 -14 15 -21 0 -30 19 -16 35 19 23 -48 49 -102 40 -34 -6 -39 -9 -23
-15 11 -4 26 -5 33 -3 14 6 15 -6 2 -27 -7 -12 -14 -12 -43 -2 -18 7 -42 12
-53 12 -24 0 -74 54 -64 70 4 6 26 14 49 17 l41 6 -26 24 c-34 31 -68 23 -88
-22 -3 -5 -11 -2 -19 7 -11 14 -20 15 -56 6 -44 -11 -44 -24 -1 -30 40 -5 37
-34 -5 -48 -27 -9 -33 -15 -26 -24 15 -18 3 -26 -36 -26 -21 0 -33 5 -33 14 0
8 -7 17 -16 20 -30 11 -37 6 -19 -14 17 -19 17 -20 -9 -31 -29 -14 -31 -20
-13 -38 10 -10 4 -12 -28 -9 -54 4 -61 37 -16 77 39 35 46 75 14 79 -47 7 -20
21 45 24 61 3 67 5 70 26 3 17 10 22 33 22 27 0 30 3 27 27 -3 23 2 29 30 37
25 7 31 13 27 27 -5 14 2 22 29 33 48 20 45 33 -8 41 -43 7 -44 8 -42 40 4 43
14 57 37 50 12 -4 34 2 53 13 25 15 37 17 45 9 8 -8 11 -8 11 0 0 17 45 21 66
6 10 -7 26 -13 36 -13 11 0 18 -7 18 -19 0 -25 23 -33 79 -25 25 3 58 1 74 -5
36 -14 34 0 -3 21 -17 9 -30 25 -30 35 -1 22 -28 56 -58 72 -14 7 -22 21 -22
37 0 13 -7 27 -15 30 -25 10 -17 24 15 24 37 0 65 -27 91 -86 11 -24 26 -44
34 -44 18 0 37 -34 30 -52 -6 -14 38 -24 56 -12 10 6 -17 50 -48 79 -22 19
-22 21 -7 52 22 44 13 64 -24 57 -36 -7 -53 13 -28 32 16 11 15 14 -14 29 -29
15 -32 20 -27 51 4 22 1 39 -9 48 -19 20 -18 25 6 19 15 -4 20 0 21 13 0 17 1
16 9 -2 12 -30 26 -37 50 -24 14 8 20 8 20 0 0 -6 5 -8 10 -5 7 4 3 13 -9 24
-11 9 -21 30 -23 47 -3 26 0 29 27 30 59 1 100 6 83 11 -21 5 -23 14 -6 31 17
17 28 15 28 -7 0 -11 8 -22 19 -26 10 -3 26 -14 36 -25 10 -11 27 -20 38 -20
10 0 42 -16 69 -37 46 -33 50 -39 46 -72 -5 -38 18 -110 30 -95 4 5 6 44 4 87
-3 67 -6 77 -22 77 -11 0 -23 6 -27 13 -4 7 -27 28 -50 46 -41 32 -59 58 -48
69 5 5 95 -55 106 -71 4 -5 16 -4 28 3 29 15 54 -4 45 -32 -7 -23 25 -168 37
-168 14 0 19 34 10 72 -5 20 -6 48 -4 62 3 16 -3 36 -20 58 -14 18 -28 45 -32
59 -9 36 14 50 33 21 15 -23 42 -30 42 -11 0 6 -11 24 -25 41 -24 29 -32 48
-19 48 17 0 76 -74 90 -112 23 -67 48 -117 58 -118 11 0 0 119 -15 156 -5 15
-7 29 -4 32 11 11 26 -16 29 -52 2 -21 12 -45 24 -57 22 -20 52 -26 52 -9 0 5
11 12 24 16 32 8 42 34 16 41 -16 4 -18 11 -13 32 11 43 24 51 66 38 20 -7 37
-18 37 -25 0 -27 35 -6 47 28 7 19 12 29 12 22 1 -7 6 -10 12 -6 6 3 9 19 5
35 -5 28 -5 29 39 29 54 0 58 -16 18 -56 -18 -18 -23 -29 -15 -32 22 -7 42 6
42 28 0 11 5 20 11 20 12 0 124 97 124 108 0 4 17 30 39 57 41 53 43 37 5 -37
-15 -31 -16 -38 -5 -38 8 0 18 9 21 20 3 11 15 20 26 20 10 0 19 -1 19 -3 0
-12 -45 -93 -61 -110 -10 -12 -19 -26 -19 -33 0 -17 17 -27 25 -14 9 15 45 12
45 -3 0 -15 -27 -41 -51 -50 -19 -6 -32 -57 -15 -57 7 0 17 5 23 11 20 20 36
-1 30 -41 -4 -30 -2 -37 12 -36 13 1 15 -8 13 -49 -10 -162 -2 -190 46 -178
17 4 23 2 18 -6 -4 -6 2 -23 13 -37 12 -15 21 -30 21 -34 0 -4 25 -33 56 -66
30 -32 64 -68 75 -79 10 -12 19 -26 19 -32 0 -14 36 -27 51 -18 23 15 -28 173
-66 205 -9 7 -15 30 -15 54 0 45 -13 66 -42 66 -11 0 -18 7 -18 19 0 23 -16
36 -25 21 -15 -25 -24 -6 -18 38 10 77 41 124 86 128 30 2 35 -10 26 -59 -9
-51 -1 -61 34 -45 32 15 38 31 42 106 1 32 6 73 9 92 5 26 2 49 -13 83 -23 54
-25 66 -12 85 7 12 14 11 40 -3 31 -15 32 -19 26 -56 -5 -30 -2 -47 14 -75 22
-38 28 -84 10 -84 -6 0 1 -14 15 -31 20 -23 26 -42 26 -75 0 -47 14 -84 30
-84 6 0 10 13 10 28 0 16 6 37 14 48 14 18 15 18 25 -9 6 -15 20 -41 32 -57
20 -27 23 -28 35 -12 12 16 14 16 28 -3 8 -11 16 -28 16 -38 0 -9 4 -25 9 -35
6 -9 12 -30 16 -45 4 -19 15 -31 35 -38 23 -9 31 -20 42 -61 8 -33 19 -53 30
-56 22 -5 22 -12 2 -56 -18 -37 -12 -90 9 -83 15 5 40 76 34 99 -3 9 1 19 9
22 10 4 14 -4 14 -32 0 -25 7 -46 21 -61 l21 -22 27 35 c16 20 31 33 35 29 11
-11 6 -48 -9 -70 -10 -14 -12 -24 -5 -28 5 -3 10 -1 10 4 0 6 5 11 10 11 21 0
21 -31 0 -71 -24 -46 -15 -74 16 -48 10 8 29 14 43 14 24 0 26 3 26 42 0 30 6
47 22 63 13 11 23 29 23 39 0 10 6 24 14 30 18 15 28 -8 20 -48 -4 -18 0 -38
11 -54 9 -14 15 -37 13 -53 -3 -23 2 -28 26 -35 34 -9 59 5 54 30 -2 9 8 23
23 33 14 9 36 30 48 47 l23 31 -34 -2 c-30 -3 -33 0 -36 25 -2 16 -10 31 -18
34 -19 7 -18 23 1 23 21 0 19 37 -2 49 -15 8 -16 12 -4 35 17 32 4 52 -42 62
-18 3 -35 12 -39 18 -13 19 -9 69 11 121 13 35 17 62 12 90 l-6 39 -21 -27
c-12 -14 -24 -49 -28 -77 -5 -34 -11 -50 -21 -50 -18 0 -19 23 -4 52 9 16 7
24 -10 40 -28 26 -25 81 6 110 13 12 23 28 23 35 0 8 4 12 9 8 13 -7 41 34 34
51 -8 20 -20 17 -45 -11 -40 -46 -65 8 -31 66 19 33 38 39 30 10 -8 -32 8 -47
35 -33 24 13 44 12 67 -2 12 -8 11 -11 -4 -22 -14 -11 -16 -19 -8 -51 9 -36
11 -38 44 -35 18 2 38 11 43 19 4 8 17 24 27 34 10 10 25 33 35 51 9 18 23 41
32 51 14 16 17 16 33 1 16 -14 21 -13 63 19 26 20 53 33 63 31 10 -3 55 18
102 46 46 27 87 50 91 50 4 0 15 9 25 20 18 19 17 20 -3 20 -11 0 -24 -4 -27
-10 -8 -13 -169 -90 -189 -90 -8 0 -17 -6 -19 -12 -3 -7 -6 2 -6 20 -1 26 3
32 20 32 31 0 135 53 218 112 35 25 16 36 -22 14 -18 -10 -67 -37 -110 -59
-61 -32 -80 -38 -89 -29 -17 17 2 46 33 50 23 4 162 77 203 108 37 27 5 28
-42 2 -167 -94 -198 -101 -190 -47 2 18 8 23 25 21 37 -5 165 63 243 128 l25
21 -25 -7 c-25 -7 -141 -70 -183 -99 -12 -8 -34 -15 -50 -15 -25 0 -28 3 -25
26 3 23 8 27 41 30 36 3 198 90 222 119 6 7 19 18 30 24 18 11 18 11 -5 5 -30
-7 -50 -17 -163 -78 -90 -50 -121 -53 -115 -14 2 15 11 22 33 25 37 5 151 62
227 116 32 22 58 42 58 44 0 11 -63 -14 -120 -47 -151 -87 -190 -99 -190 -56
0 19 6 24 38 30 71 11 289 143 269 162 -5 6 -46 -15 -187 -95 -64 -36 -110
-41 -110 -12 0 19 18 31 47 31 22 0 214 106 246 136 23 21 35 24 94 23 37 -1
56 -4 41 -6 -27 -4 -28 -7 -28 -60 0 -40 -5 -59 -17 -68 -11 -8 -14 -18 -8
-31 10 -25 6 -98 -6 -102 -13 -5 -11 -102 2 -102 7 0 10 -16 7 -42 -4 -42 16
-78 42 -78 6 0 8 -10 5 -22 -4 -17 0 -25 17 -33 34 -15 51 -75 33 -118 -8 -19
-14 -67 -14 -108 -1 -41 -5 -92 -11 -114 -5 -22 -9 -56 -9 -75 0 -27 5 -18 20
40 11 41 20 93 21 115 1 22 8 69 16 105 8 36 20 110 28 165 8 55 21 141 30
190 9 50 19 113 24 140 4 28 14 85 21 128 l13 77 172 0 172 0 -19 -87 c-11
-49 -23 -97 -29 -108 -5 -11 -11 -36 -13 -55 -6 -46 -66 -291 -76 -310 -4 -8
-5 -24 -1 -35 5 -12 3 -26 -5 -35 -6 -8 -17 -46 -24 -84 -7 -38 -19 -78 -27
-90 -7 -11 -14 -30 -14 -41 0 -13 -3 -16 -8 -8 -4 7 -13 9 -21 4 -7 -5 -11
-13 -7 -19 3 -5 -1 -15 -8 -21 -16 -14 -86 -5 -86 11 0 5 -4 6 -10 3 -16 -10
-12 -42 7 -49 9 -4 41 1 71 9 58 17 77 12 70 -20 -1 -10 -10 -21 -18 -25 -53
-26 -69 -32 -79 -25 -14 8 -124 -5 -116 -14 4 -3 39 -8 78 -11 56 -4 72 -9 75
-22 3 -17 -10 -22 -105 -33 -77 -10 -68 -29 9 -22 60 5 98 -4 98 -23 0 -6 -9
-10 -19 -10 -11 0 -23 -4 -26 -10 -3 -5 -25 -10 -48 -11 -23 -1 -53 -4 -67 -8
l-25 -7 23 -8 c13 -4 45 -5 73 -1 47 7 49 6 49 -18 0 -23 -4 -25 -80 -31 -44
-4 -80 -12 -80 -17 0 -10 26 -13 91 -10 51 3 73 -14 46 -34 -14 -10 -77 -23
-134 -27 -13 -1 -23 -67 -11 -74 4 -3 8 -1 8 5 0 20 33 41 66 41 24 0 34 -5
34 -15 0 -8 -5 -15 -11 -15 -6 0 -7 -5 -2 -12 4 -7 9 -23 10 -35 4 -23 -4 -27
-74 -38 -40 -6 -73 -29 -60 -41 3 -3 27 -7 54 -9 53 -3 83 -13 83 -25 0 -15
-21 -23 -78 -29 -79 -9 -81 -31 -3 -31 46 0 61 -4 61 -14 0 -15 -44 -26 -120
-28 -53 -1 -90 -13 -90 -29 0 -7 11 -8 33 -3 32 8 138 6 146 -2 3 -2 -2 -11
-10 -19 -16 -16 -215 -30 -224 -16 -3 5 2 17 11 25 8 9 14 26 13 39 -2 12 0
31 4 42 9 29 17 68 34 165 7 47 23 135 34 195 10 61 20 133 22 160 2 44 0 50
-17 47 -29 -5 -106 18 -150 46 -59 37 -104 89 -123 144 -10 26 -21 48 -25 48
-4 0 -26 -13 -50 -28 -77 -51 -105 -65 -122 -59 -23 9 -20 37 5 37 21 0 139
61 171 88 10 8 18 21 18 28 0 11 -215 -91 -246 -117 -7 -5 -23 -7 -36 -4 -20
5 -29 0 -43 -22 -11 -15 -18 -38 -16 -50 1 -15 -3 -23 -13 -23 -9 0 -23 -11
-31 -24 -13 -20 -14 -29 -5 -46 13 -25 32 -22 40 6 10 36 35 64 57 64 26 0 32
-27 9 -36 -18 -7 -40 -59 -31 -74 4 -6 1 -25 -5 -41 -7 -16 -10 -33 -6 -36 9
-9 75 24 82 40 3 8 17 11 39 9 l35 -4 -18 -31 c-13 -22 -14 -31 -4 -34 6 -3
12 -13 12 -23 0 -10 10 -26 22 -34 12 -9 19 -19 15 -22 -4 -4 -12 -2 -19 3 -7
6 -32 13 -56 17 -34 5 -49 2 -72 -14 l-28 -20 -6 35 c-4 20 -4 40 -1 45 8 13
-24 25 -35 14 -5 -5 -12 -28 -16 -51 -6 -37 -4 -43 11 -43 21 0 14 -24 -9 -28
-11 -3 -19 4 -23 18 -5 20 -25 24 -24 5 0 -6 -7 -17 -15 -26 -15 -17 -9 -49 9
-49 6 0 18 6 26 14 9 8 28 17 43 21 41 10 58 -24 50 -100 -5 -45 -12 -62 -27
-70 -37 -19 -45 -26 -40 -35 3 -5 19 -4 35 2 17 5 38 7 48 3 16 -6 16 -7 -2
-17 -18 -10 -18 -11 5 -29 13 -10 18 -19 12 -19 -19 0 -16 -37 3 -44 25 -10
94 -7 94 4 0 6 10 10 21 10 20 0 21 -1 5 -25 -9 -13 -25 -49 -37 -79 -17 -46
-27 -59 -65 -80 -39 -22 -59 -25 -147 -27 -62 -1 -113 -7 -129 -15 -15 -8 -43
-14 -62 -14 -25 0 -40 -7 -55 -26 -12 -15 -21 -31 -21 -37 0 -6 -12 -28 -27
-50 -20 -29 -27 -52 -28 -92 -1 -30 -8 -61 -15 -70 -16 -19 1 -65 24 -65 8 0
16 -10 18 -22 4 -32 66 -71 103 -65 17 3 81 -2 144 -11 106 -15 116 -14 143 1
16 9 41 17 55 17 16 0 37 13 57 33 17 18 43 41 59 50 22 14 27 25 27 55 0 80
12 161 26 173 12 10 21 5 51 -25 33 -33 37 -43 38 -89 0 -58 -7 -55 94 -37 29
5 58 13 65 18 15 13 133 50 181 57 22 4 60 13 85 20 25 7 70 16 100 20 l56 6
18 -41 c10 -22 35 -54 56 -71 27 -22 40 -42 45 -67 11 -58 33 -90 75 -112 47
-24 75 -52 101 -103 30 -58 94 -115 162 -147 34 -16 85 -48 112 -72 62 -53
297 -282 375 -363 117 -123 133 -141 173 -194 40 -52 41 -54 22 -68 -11 -8
-32 -19 -47 -25 -42 -15 -35 -32 10 -22 82 17 94 13 127 -42 31 -51 76 -108
168 -211 26 -30 62 -78 80 -106 17 -29 60 -94 94 -145 35 -51 63 -95 63 -98 0
-3 20 -35 43 -72 65 -100 119 -191 143 -242 12 -25 63 -119 114 -210 51 -91
102 -181 112 -200 74 -135 90 -160 100 -160 5 0 8 414 8 920 0 506 -2 920 -6
920 -9 0 -147 -112 -200 -163 -29 -27 -54 -44 -58 -39 -7 12 23 73 42 85 16
10 16 42 -1 55 -18 15 -59 11 -53 -5 3 -6 -4 -15 -15 -18 -13 -4 -18 -12 -15
-21 3 -9 1 -12 -4 -9 -6 3 -10 0 -10 -8 0 -8 -12 -22 -26 -32 -26 -17 -27 -17
-60 21 -19 21 -34 43 -34 49 0 6 -16 25 -35 42 l-35 32 15 43 c8 24 15 50 15
59 0 19 -41 59 -60 59 -21 0 -67 -58 -72 -91 -4 -25 -1 -30 21 -36 14 -3 34
-16 45 -28 12 -12 31 -27 43 -33 12 -7 24 -26 28 -43 4 -18 24 -50 45 -73 31
-33 36 -45 29 -64 -11 -30 -50 -33 -80 -6 -12 10 -31 12 -75 8 -66 -7 -72 -10
-57 -25 8 -8 17 -8 30 -1 12 7 25 7 34 1 7 -5 26 -9 42 -9 15 0 27 -5 27 -10
0 -6 -10 -8 -24 -4 -22 5 -23 4 -17 -33 4 -26 13 -41 29 -48 12 -5 22 -15 22
-21 0 -7 7 -14 15 -18 27 -10 16 -24 -20 -24 -28 0 -35 4 -35 19 0 18 -10 23
-38 20 -24 -4 -42 21 -42 58 0 26 -6 40 -21 49 -12 7 -24 11 -27 7 -4 -3 0
-10 7 -15 9 -5 11 -15 7 -26 -7 -18 -8 -18 -18 -1 -5 10 -7 29 -4 43 4 13 2
33 -4 44 -8 16 -8 20 4 20 8 0 17 -6 19 -12 3 -7 6 -4 6 7 1 12 -4 26 -10 32
-9 9 -6 19 10 42 21 30 41 40 41 23 0 -10 50 -35 57 -28 6 6 -20 46 -29 46 -5
0 -8 11 -8 23 0 19 -8 26 -41 36 -42 13 -58 33 -41 54 5 6 12 36 15 64 7 60
73 202 115 246 15 16 53 43 84 60 32 17 58 35 58 39 0 4 18 11 40 14 22 4 43
11 46 15 3 5 12 9 19 9 12 0 12 -5 3 -25 -6 -14 -17 -25 -23 -25 -7 0 -18 -7
-25 -15 -7 -8 -21 -15 -31 -15 -18 0 -23 -10 -20 -37 1 -7 -2 -13 -7 -13 -17
0 -36 -60 -24 -72 17 -17 42 -1 42 27 0 24 3 26 33 24 39 -3 107 26 107 46 0
18 50 45 84 45 15 0 31 9 38 20 10 16 20 18 50 13 l38 -6 0 172 c0 118 -3 171
-11 171 -6 0 -9 -6 -6 -14 3 -8 0 -20 -8 -26 -8 -6 -11 -18 -8 -26 3 -8 -2
-17 -12 -20 -11 -5 -13 -9 -5 -14 6 -4 13 -23 16 -42 6 -32 2 -40 -34 -77 -44
-46 -45 -46 -64 -28 -13 13 -45 25 -214 81 -88 30 -303 143 -532 282 -41 24
-76 44 -79 44 -9 0 -101 60 -153 99 -96 72 -162 135 -176 170 -14 32 -15 137
-12 848 l3 813 648 0 647 0 0 305 0 305 -3750 0 -3750 0 1 -2907z m1907 2290
c-10 -2 -28 -2 -40 0 -13 2 -5 4 17 4 22 1 32 -1 23 -4z m320 -18 c2 -31 -8
-31 -31 0 -18 25 -18 25 5 25 18 0 24 -6 26 -25z m2356 10 c-10 -8 -29 -15
-41 -15 -17 0 -21 -4 -16 -16 4 -10 -1 -22 -12 -30 -15 -11 -16 -16 -6 -28 16
-19 6 -36 -20 -36 -10 0 -19 -5 -19 -10 0 -17 26 -22 64 -12 24 7 36 7 36 0 0
-5 -9 -12 -20 -15 -11 -3 -20 -9 -20 -14 0 -5 -7 -9 -16 -9 -8 0 -30 -11 -47
-24 -18 -13 -58 -31 -89 -40 -37 -11 -58 -22 -58 -31 0 -8 8 -15 18 -15 43 0
139 25 161 41 26 20 43 17 35 -6 -4 -8 -7 -34 -8 -57 l-1 -43 -65 -5 c-65 -5
-63 -20 2 -20 19 0 28 -4 25 -12 -2 -8 -18 -12 -37 -10 -18 1 -38 -3 -46 -9
-7 -6 -22 -8 -33 -4 -12 3 -23 0 -28 -8 -11 -19 -45 -29 -62 -18 -10 6 -28 3
-54 -10 -21 -11 -46 -18 -54 -14 -14 5 -14 8 2 25 16 18 17 21 1 45 -19 29
-20 29 -45 13 -15 -9 -22 -8 -36 5 -9 9 -25 17 -35 17 -10 0 -26 3 -35 6 -26
11 11 44 50 44 17 0 40 7 51 15 19 15 18 16 -9 40 -35 31 -29 55 12 55 29 0
41 14 41 51 0 10 -3 19 -7 19 -30 -1 -56 -17 -64 -39 -6 -14 -13 -21 -17 -16
-4 6 -17 11 -29 12 -17 2 -23 -3 -23 -16 0 -10 -10 -31 -21 -46 -12 -15 -25
-41 -28 -58 -5 -24 -14 -34 -39 -41 -18 -5 -32 -15 -32 -22 0 -18 -13 -24 -30
-14 -13 8 -11 12 8 25 12 9 22 22 22 29 0 15 65 101 100 133 14 12 37 27 52
34 15 6 30 19 33 28 6 19 83 101 95 101 5 0 12 9 15 20 6 19 15 20 203 20 174
0 194 -2 176 -15z m147 6 c-8 -5 -20 -7 -28 -4 -21 8 -15 13 15 13 20 0 23 -3
13 -9z m134 -12 c-22 -12 -65 -36 -95 -53 -72 -41 -107 -56 -114 -49 -17 17 1
35 70 69 41 21 78 42 80 46 3 4 26 8 52 8 l47 0 -40 -21z m252 15 c-3 -3 -12
-4 -19 -1 -8 3 -5 6 6 6 11 1 17 -2 13 -5z m53 -13 c0 -11 -4 -23 -10 -26 -6
-4 -10 5 -10 19 0 14 5 26 10 26 6 0 10 -9 10 -19z m-3092 -43 c-3 -7 -11 -13
-18 -13 -7 0 -15 6 -17 13 -3 7 4 12 17 12 13 0 20 -5 18 -12z m2562 8 c0 -2
-7 -7 -16 -10 -8 -3 -12 -2 -9 4 6 10 25 14 25 6z m-2720 -36 c0 -5 14 -10 30
-10 17 0 31 -6 32 -12 0 -7 2 -17 3 -23 0 -5 16 -26 34 -45 l33 -35 -28 -11
c-26 -11 -27 -13 -9 -19 11 -4 30 -11 41 -17 12 -6 31 -7 43 -3 17 5 21 2 21
-18 0 -19 8 -28 30 -36 30 -10 37 -30 24 -64 -5 -13 -9 -13 -35 1 -16 10 -32
25 -35 34 -5 17 -27 32 -91 62 -17 9 -33 20 -35 26 -1 5 -32 20 -68 33 -58 20
-65 26 -68 52 -4 28 -3 29 15 14 10 -9 28 -20 41 -23 12 -4 22 -12 22 -19 0
-8 3 -8 12 1 9 9 9 15 0 24 -7 7 -12 17 -12 23 0 5 5 3 10 -5 7 -11 12 -12 21
-3 8 8 6 16 -10 32 -12 12 -27 21 -35 21 -22 0 -46 11 -46 21 0 5 14 9 30 9
17 0 30 -4 30 -10z m370 -32 c12 -24 40 -77 62 -118 22 -41 49 -84 61 -95 12
-11 38 -44 57 -72 19 -28 45 -56 58 -62 21 -10 29 -31 16 -43 -7 -8 -77 14
-87 27 -4 5 -12 26 -17 46 -6 20 -17 42 -25 49 -8 7 -15 19 -15 27 0 7 -9 24
-21 36 -11 12 -27 38 -35 57 -8 19 -32 55 -53 80 -38 44 -59 110 -36 110 6 0
22 -19 35 -42z m2310 22 c0 -5 -7 -10 -16 -10 -8 0 -12 5 -9 10 3 6 10 10 16
10 5 0 9 -4 9 -10z m-2760 -30 c0 -5 -4 -10 -10 -10 -5 0 -10 5 -10 10 0 6 5
10 10 10 6 0 10 -4 10 -10z m2740 6 c0 -3 -4 -8 -10 -11 -5 -3 -10 -1 -10 4 0
6 5 11 10 11 6 0 10 -2 10 -4z m-2441 -58 c1 -5 -3 -8 -9 -8 -5 0 -10 12 -9
28 0 24 1 25 9 7 5 -11 9 -23 9 -27z m1938 -80 c-3 -8 -6 -5 -6 6 -1 11 2 17
5 13 3 -3 4 -12 1 -19z m-2716 -25 c-8 -15 -10 -15 -11 -2 0 17 10 32 18 25 2
-3 -1 -13 -7 -23z m597 -20 c2 -8 -5 -13 -17 -13 -21 0 -35 13 -24 24 10 10
36 3 41 -11z m-603 -191 c-22 -22 -35 122 -14 159 13 22 14 16 17 -65 2 -49 0
-91 -3 -94z m670 148 c-8 -13 -35 -13 -55 0 -11 7 -5 10 23 10 23 0 36 -4 32
-10z m-71 -35 c3 -8 17 -15 32 -15 17 0 28 -6 31 -19 3 -11 18 -24 34 -30 29
-10 39 -36 17 -43 -7 -3 -8 -10 -4 -17 6 -9 11 -10 19 -2 13 13 44 14 51 3 3
-5 3 -25 -1 -45 -5 -33 -8 -35 -35 -32 -38 5 -61 -4 -54 -21 8 -22 -7 -17 -52
16 -23 17 -48 30 -56 30 -7 0 -19 7 -26 15 -7 8 -21 15 -31 15 -11 0 -19 4
-19 8 0 5 -16 16 -36 26 -20 9 -34 20 -31 23 10 9 -22 48 -40 48 -9 0 -18 6
-20 13 -4 9 14 12 64 12 45 0 76 5 89 15 25 19 60 19 68 0z m126 5 c0 -5 -4
-10 -9 -10 -6 0 -13 5 -16 10 -3 6 1 10 9 10 9 0 16 -4 16 -10z m140 -26 c0
-8 -4 -12 -10 -9 -5 3 -10 10 -10 16 0 5 5 9 10 9 6 0 10 -7 10 -16z m-100
-49 c-14 -26 -30 -33 -30 -13 0 14 31 50 38 43 3 -3 -1 -16 -8 -30z m1300 14
c0 -6 -4 -7 -10 -4 -5 3 -10 11 -10 16 0 6 5 7 10 4 6 -3 10 -11 10 -16z m680
12 c0 -5 -7 -11 -14 -14 -10 -4 -13 -1 -9 9 6 15 23 19 23 5z m-1010 -31 c0
-5 -2 -10 -4 -10 -3 0 -8 5 -11 10 -3 6 -1 10 4 10 6 0 11 -4 11 -10z m2000
-25 c0 -32 -10 -56 -21 -49 -10 6 -12 45 -3 68 8 22 24 10 24 -19z m-3414 14
c7 -12 -22 -46 -32 -37 -8 9 5 48 16 48 5 0 12 -5 16 -11z m1484 -28 c0 -21 6
-32 20 -36 24 -7 27 -40 5 -49 -28 -10 -71 85 -48 107 14 15 23 6 23 -22z
m357 -36 c3 -9 3 -18 0 -21 -6 -7 -47 18 -47 28 0 15 41 8 47 -7z m-2116 -107
c28 -56 35 -78 25 -78 -23 0 -76 104 -75 147 0 21 3 31 6 23 3 -8 23 -50 44
-92z m1220 86 c10 -13 10 -17 -1 -24 -14 -9 -50 4 -50 19 0 24 32 28 51 5z
m1623 1 c-4 -8 -11 -15 -16 -15 -6 0 -5 6 2 15 7 8 14 15 16 15 2 0 1 -7 -2
-15z m252 -39 c11 -47 -10 -82 -27 -45 -3 8 -11 24 -17 36 -7 12 -9 29 -6 37
8 22 42 2 50 -28z m-1180 22 c14 -22 13 -58 -1 -58 -14 0 -25 21 -25 51 0 21
15 25 26 7z m764 -40 c0 -11 -7 -18 -20 -18 -15 0 -20 7 -20 28 0 16 3 32 7
36 10 9 33 -23 33 -46z m-2223 21 c57 -20 113 -47 123 -58 11 -14 61 -30 75
-25 8 4 48 7 88 8 l72 1 -2 28 c-2 29 6 34 25 15 28 -28 13 -45 -55 -62 -38
-9 -79 -16 -93 -16 -15 0 -31 -5 -37 -11 -7 -7 -51 -15 -99 -20 -70 -6 -95 -4
-128 8 -52 21 -50 18 -36 44 10 18 10 25 -1 33 -15 12 -14 76 1 76 5 0 35 -9
67 -21z m2337 15 c14 -5 14 -8 -1 -30 -14 -22 -14 -24 2 -24 29 0 13 -35 -18
-38 -16 -2 -31 -11 -34 -20 -30 -94 -70 -115 -63 -33 2 21 -1 23 -24 17 -13
-3 -27 -2 -30 3 -7 11 23 38 48 42 11 2 28 20 39 39 27 48 44 58 81 44z m159
-24 c19 -22 22 -40 8 -40 -5 0 -11 -12 -13 -27 -2 -23 -8 -29 -35 -31 -28 -3
-36 -10 -52 -48 -21 -47 -44 -52 -55 -11 -9 34 -8 36 26 45 23 6 34 16 42 40
9 25 14 30 23 21 14 -14 33 -3 33 20 0 25 -11 33 -27 19 -17 -13 -28 -4 -20
17 9 21 49 19 70 -5z m-1126 -17 c4 -10 11 -21 17 -25 6 -4 16 -31 22 -60 10
-43 10 -56 0 -66 -11 -11 -16 -11 -30 3 -9 9 -14 21 -10 26 3 6 -1 20 -9 32
-17 26 -30 91 -20 100 11 12 23 8 30 -10z m120 -5 c-3 -8 -6 -5 -6 6 -1 11 2
17 5 13 3 -3 4 -12 1 -19z m547 -35 c7 -59 -6 -72 -20 -20 -6 17 -16 32 -24
32 -22 0 -18 28 3 31 11 1 21 5 25 8 8 9 9 6 16 -51z m-500 2 c7 -18 -10 -20
-17 -2 -4 9 -8 8 -16 -3 -6 -8 -11 -10 -11 -4 0 26 34 33 44 9z m111 5 c3 -5
1 -10 -4 -10 -6 0 -11 5 -11 10 0 6 2 10 4 10 3 0 8 -4 11 -10z m-750 -60 c0
-8 -8 -16 -17 -18 -13 -2 -18 3 -18 18 0 15 5 20 18 18 9 -2 17 -10 17 -18z
m1219 5 c-4 -8 -10 -12 -15 -9 -11 6 -2 24 11 24 5 0 7 -7 4 -15z m525 -4 c8
-14 7 -22 -3 -30 -7 -6 -16 -8 -19 -5 -3 4 -20 -4 -36 -17 -16 -13 -41 -32
-55 -41 -13 -10 -27 -31 -31 -47 -10 -47 -65 -47 -65 1 0 10 -4 18 -9 18 -17
0 -20 29 -6 58 10 20 27 33 54 40 21 7 44 19 51 27 19 23 106 20 119 -4z
m-2913 -12 c3 -6 1 -16 -5 -22 -6 -6 -11 -30 -11 -53 0 -25 -6 -47 -15 -54
-24 -20 -18 -43 20 -80 36 -34 45 -60 23 -60 -23 1 -109 91 -114 120 -4 17 1
40 12 61 10 19 17 37 16 42 -1 4 3 7 8 7 6 0 16 11 22 25 12 26 32 33 44 14z
m1624 -42 c0 -5 -4 -5 -10 -2 -5 3 -10 14 -10 23 0 15 2 15 10 2 5 -8 10 -19
10 -23z m384 8 c8 -8 17 -15 20 -15 12 0 93 -61 118 -89 22 -24 25 -33 15 -43
-7 -7 -16 -21 -20 -32 -10 -27 -34 -4 -47 45 -11 38 -25 50 -32 27 -7 -20 -27
1 -39 42 -7 23 -20 42 -31 45 -10 4 -18 13 -18 21 0 18 15 18 34 -1z m-1644
-26 c13 0 13 -1 0 -6 -8 -3 -23 -13 -33 -21 -16 -14 -19 -14 -32 4 -29 38 -16
59 23 38 15 -8 34 -14 42 -15z m-488 -34 c-2 -16 -3 -54 -3 -82 1 -29 -3 -53
-7 -53 -10 0 -50 98 -50 120 0 8 -3 23 -7 33 -7 16 -3 18 31 15 37 -3 39 -5
36 -33z m388 25 c0 -5 -2 -10 -4 -10 -3 0 -8 5 -11 10 -3 6 -1 10 4 10 6 0 11
-4 11 -10z m700 -37 c0 -24 -25 -9 -28 17 -3 21 -2 22 12 11 9 -7 16 -20 16
-28z m-753 13 c1 -1 -1 -14 -5 -30 l-8 -28 -18 21 c-24 26 -43 27 -51 1 -4
-14 -15 -20 -33 -20 -27 1 -27 1 -7 18 12 9 24 25 28 35 5 14 14 16 49 11 24
-4 44 -8 45 -8z m1488 -34 c-5 -29 -2 -42 9 -52 16 -13 20 -3 17 40 0 8 3 22
9 30 8 13 11 13 26 -2 16 -16 16 -19 -7 -52 -13 -20 -31 -36 -41 -36 -9 0 -19
-6 -21 -12 -4 -8 -8 -4 -12 10 -4 12 -11 22 -16 22 -5 0 -9 18 -9 40 0 30 3
38 14 34 8 -3 17 -1 21 5 12 21 17 10 10 -27z m1445 3 c0 -8 -3 -15 -8 -15 -4
0 -31 -16 -61 -35 -53 -35 -75 -43 -69 -25 3 10 118 89 131 90 4 0 7 -7 7 -15z
m-2819 -52 c-6 -12 -10 -10 -15 11 -4 15 -3 32 0 38 11 17 26 -31 15 -49z
m2582 18 c-5 -20 -31 -36 -41 -26 -6 6 27 45 39 45 4 0 5 -9 2 -19z m-946 -37
c21 -43 21 -74 2 -74 -5 0 -11 12 -14 28 -3 15 -10 42 -14 60 -13 46 0 39 26
-14z m1203 16 c0 -12 -88 -70 -107 -70 -21 0 -15 20 10 30 12 5 36 18 52 29
33 23 45 26 45 11z m-927 -54 c15 -19 27 -41 27 -49 0 -8 7 -20 15 -27 9 -7
14 -22 13 -34 -2 -16 3 -21 23 -22 39 -1 47 -10 60 -69 9 -40 17 -55 29 -55
17 0 19 -12 21 -112 1 -59 -3 -108 -8 -108 -14 0 -43 23 -43 34 0 8 -14 29
-32 47 -28 29 -32 42 -35 93 -2 52 -7 64 -35 93 -17 18 -37 33 -44 33 -7 0
-10 8 -7 20 4 15 0 20 -16 20 -27 0 -28 29 -1 63 23 29 26 49 6 41 -19 -7 -31
14 -31 53 0 25 3 29 16 22 9 -4 28 -24 42 -43z m271 15 c7 -11 -27 -51 -44
-51 -15 0 -50 42 -43 52 6 11 81 10 87 -1z m686 -16 c0 -12 -108 -70 -116 -62
-1 1 7 10 19 20 12 9 35 28 52 41 31 25 45 25 45 1z m-1147 -36 c-11 -12 -26
-18 -33 -14 -13 8 16 34 40 35 11 0 9 -6 -7 -21z m917 -13 c0 -18 -38 -46 -62
-46 -24 0 -23 8 5 35 25 26 57 32 57 11z m253 -19 c-5 -18 -3 -20 8 -9 21 19
26 15 23 -23 -2 -25 2 -37 14 -44 10 -5 27 -26 37 -45 20 -37 29 -43 40 -26 5
8 11 8 20 0 7 -6 20 -8 28 -4 22 8 33 -37 17 -66 -7 -12 -13 -52 -14 -89 -4
-105 -24 -210 -47 -247 -38 -63 -56 -39 -34 46 9 33 13 65 10 70 -3 6 -23 13
-44 16 -42 7 -55 24 -66 86 -3 23 -14 42 -30 52 -14 10 -25 26 -25 39 0 29
-57 80 -82 74 -30 -8 -20 9 15 27 17 8 26 16 19 16 -8 0 -6 8 8 22 11 12 20
26 20 30 0 14 -33 23 -38 10 -2 -7 -13 -12 -24 -12 -17 0 -18 3 -8 15 7 8 19
15 26 15 8 0 14 5 14 10 0 6 5 10 10 10 6 0 20 9 32 20 12 11 30 20 40 20 10
0 18 5 18 11 0 5 4 8 9 5 5 -3 7 -16 4 -29z m-757 -36 c4 -17 12 -32 20 -35
16 -6 19 -36 4 -36 -18 0 -70 30 -70 40 0 19 20 60 30 60 6 0 13 -13 16 -29z
m-2238 -13 c-5 -15 -23 -11 -26 6 -2 11 2 14 13 10 9 -4 14 -11 13 -16z m2804
-50 c-7 -7 -12 -8 -12 -2 0 14 12 26 19 19 2 -3 -1 -11 -7 -17z m-2818 -4 c4
-9 4 -19 1 -22 -6 -6 -35 18 -35 29 0 16 28 10 34 -7z m-359 -54 c-3 -5 -13
-10 -21 -10 -8 0 -14 5 -14 10 0 6 9 10 21 10 11 0 17 -4 14 -10z m2345 -9 c0
-26 -16 -35 -24 -15 -10 25 -7 34 9 34 8 0 15 -9 15 -19z m325 0 c3 -6 -2 -14
-12 -20 -17 -9 -17 -10 0 -28 24 -27 23 -47 -2 -33 -14 7 -19 18 -17 38 2 15
4 33 5 40 1 14 17 16 26 3z m-2805 -41 c0 -5 -2 -10 -4 -10 -3 0 -8 5 -11 10
-3 6 -1 10 4 10 6 0 11 -4 11 -10z m430 -10 c0 -5 -17 -10 -37 -10 -28 0 -34
3 -23 10 20 13 60 13 60 0z m2930 -26 c10 -11 -19 -39 -43 -42 -34 -4 -56 31
-30 47 16 10 61 6 73 -5z m-2945 -37 c38 -20 -4 -18 -47 2 l-43 20 35 -6 c19
-3 44 -10 55 -16z m2415 -39 c0 -16 6 -31 15 -34 25 -10 16 -74 -11 -74 -8 0
-14 -4 -14 -10 0 -5 -5 -10 -11 -10 -8 0 -8 5 1 15 8 10 9 19 2 28 -13 16 -24
99 -16 121 10 25 34 0 34 -36z m-2320 -13 c-6 -12 -41 -8 -55 6 -7 7 1 9 25 7
19 -2 33 -7 30 -13z m-830 -81 c12 -12 12 -16 -4 -27 -14 -11 -16 -16 -6 -22
16 -10 -5 -25 -37 -25 -29 0 -40 -20 -15 -27 19 -4 32 -29 32 -60 0 -7 -9 -13
-20 -13 -21 0 -27 -19 -11 -35 6 -6 5 -17 -4 -28 -11 -15 -17 -16 -34 -7 -22
11 -24 19 -25 92 -1 34 3 48 12 48 11 0 12 10 7 41 l-7 42 31 -5 c18 -3 34 -1
37 4 3 4 -1 8 -9 8 -8 0 -25 9 -38 20 l-24 21 50 -7 c28 -3 57 -12 65 -20z
m3633 -45 c-18 -12 -33 -25 -33 -30 0 -13 -48 -11 -56 2 -12 19 38 49 81 49
l40 0 -32 -21z m-337 -66 c-10 -10 -19 5 -10 18 6 11 8 11 12 0 2 -7 1 -15 -2
-18z m380 -30 c-10 -10 -19 5 -10 18 6 11 8 11 12 0 2 -7 1 -15 -2 -18z
m-3416 -12 c0 -5 -14 -14 -30 -20 -26 -9 -30 -14 -24 -36 7 -28 2 -30 -27 -14
-23 12 -18 45 9 67 18 14 72 16 72 3z m4398 -23 c2 -12 -3 -18 -16 -18 -22 0
-46 23 -35 34 13 13 48 1 51 -16z m-854 -65 c8 -20 -31 -56 -51 -48 -7 2 -13
-2 -13 -10 0 -8 5 -15 10 -15 19 0 10 -36 -14 -59 -23 -22 -25 -22 -50 -6 -14
10 -26 24 -26 32 0 8 -4 12 -10 8 -5 -3 -20 -3 -33 0 -19 5 -24 11 -19 28 12
52 50 70 86 42 26 -20 45 -19 53 3 15 38 56 54 67 25z m1006 -27 c0 -22 -25
-37 -38 -24 -13 13 -16 41 -6 51 10 9 44 -12 44 -27z m-4265 -95 c3 -5 1 -13
-5 -16 -15 -9 -43 3 -35 15 8 13 32 13 40 1z m4376 -6 c-1 -15 -24 -12 -29 3
-3 9 2 13 12 10 10 -1 17 -7 17 -13z m-4320 -38 c-13 -13 -81 -20 -81 -8 0 9
71 29 83 23 5 -2 4 -9 -2 -15z m2689 -27 c0 -19 -25 -34 -41 -24 -23 14 2 57
27 47 8 -3 14 -13 14 -23z m-2925 0 c-3 -5 -14 -10 -23 -10 -15 0 -15 2 -2 10
20 13 33 13 25 0z m-715 -20 c0 -5 -4 -10 -9 -10 -6 0 -13 5 -16 10 -3 6 1 10
9 10 9 0 16 -4 16 -10z m110 -13 c0 -17 -56 -16 -85 1 -17 10 -13 11 33 12 37
0 52 -4 52 -13z m720 3 c0 -5 -7 -10 -16 -10 -8 0 -12 5 -9 10 3 6 10 10 16
10 5 0 9 -4 9 -10z m4335 -20 c3 -5 -1 -10 -9 -10 -9 0 -16 5 -16 10 0 6 4 10
9 10 6 0 13 -4 16 -10z m-4271 -39 c7 -11 -22 -23 -35 -15 -5 3 -7 10 -4 15 8
12 32 12 39 0z m2606 -26 c0 -8 -4 -15 -10 -15 -5 0 -10 7 -10 15 0 8 5 15 10
15 6 0 10 -7 10 -15z m195 -5 c8 -25 -1 -40 -25 -40 -20 0 -32 22 -24 45 9 22
42 18 49 -5z m-3055 -20 c13 -8 12 -10 -2 -10 -10 0 -21 0 -25 -1 -4 0 -9 4
-11 10 -5 14 18 14 38 1z m369 -26 c6 -5 -48 -54 -60 -54 -5 0 -9 9 -9 19 0
11 -4 23 -10 26 -24 15 -7 25 33 19 23 -4 44 -8 46 -10z m-310 -29 c34 -33
-35 -71 -70 -39 -24 21 -24 40 -1 53 19 12 50 5 71 -14z m2861 -5 c12 -7 12
-13 4 -27 -15 -24 -72 -30 -80 -9 -13 35 39 60 76 36z m-2652 -47 c7 -12 17
-14 41 -10 24 5 33 3 38 -9 9 -24 -7 -32 -76 -38 -60 -6 -63 -5 -58 14 3 11 1
23 -4 26 -5 3 -9 12 -9 20 0 20 57 18 68 -3z m-89 -44 c-10 -20 -35 -24 -57
-10 -11 6 -11 10 0 18 35 28 74 22 57 -8z m-344 -149 c4 -6 -6 -10 -22 -10
-22 0 -25 2 -13 10 19 12 27 12 35 0z m113 -29 c3 -8 -1 -12 -9 -9 -7 2 -15
10 -17 17 -3 8 1 12 9 9 7 -2 15 -10 17 -17z m-43 -31 c-3 -5 -10 -10 -16 -10
-5 0 -9 5 -9 10 0 6 7 10 16 10 8 0 12 -4 9 -10z m-90 -20 c3 -5 -1 -10 -10
-10 -9 0 -13 5 -10 10 3 6 8 10 10 10 2 0 7 -4 10 -10z m65 -40 c11 -7 12 -12
3 -21 -15 -15 -63 -3 -63 16 0 17 37 20 60 5z m5733 -497 c-4 -10 -13 -24 -20
-32 -8 -8 -11 -22 -7 -34 6 -19 5 -20 -10 -5 -24 24 -21 68 4 68 11 0 20 5 20
10 0 6 4 10 10 10 5 0 6 -8 3 -17z m280 -177 c6 -16 -2 -28 -14 -20 -12 7 -11
34 0 34 5 0 11 -6 14 -14z m37 -35 c0 -14 -28 -33 -39 -26 -7 4 -7 11 2 20 13
16 37 20 37 6z m-139 -23 c1 -7 1 -17 -1 -23 -1 -5 4 -4 11 3 15 14 49 16 49
2 0 -16 -23 -60 -31 -60 -4 0 -10 9 -14 19 -3 11 -12 22 -20 25 -17 6 -21 46
-5 46 6 0 11 -6 11 -12z m-6754 -154 c-9 -9 -28 6 -21 18 4 6 10 6 17 -1 6 -6
8 -13 4 -17z m6757 -9 c-4 -8 -8 -15 -10 -15 -2 0 -4 7 -4 15 0 8 4 15 10 15
5 0 7 -7 4 -15z m-6964 -1186 c0 -15 -18 -19 -23 -6 -3 8 1 14 9 14 8 0 14 -4
14 -8z m690 -1249 c0 -5 -4 -10 -10 -10 -5 0 -10 5 -10 10 0 6 5 10 10 10 6 0
10 -4 10 -10z m3241 -276 c57 18 68 16 83 -12 16 -31 61 -186 71 -244 l6 -38
-288 0 c-225 0 -297 3 -328 15 l-40 14 50 2 c30 1 40 4 25 7 -21 4 -17 7 25
19 28 8 64 17 80 20 17 3 41 16 55 29 14 12 47 32 73 43 28 12 46 25 42 31 -4
6 11 18 34 27 24 9 43 25 47 37 10 31 38 65 45 55 3 -6 12 -8 20 -5z m2138
-33 c-7 -20 -15 -28 -25 -24 -8 3 -12 8 -10 12 1 3 6 14 9 24 4 9 13 17 21 17
12 0 13 -5 5 -29z m-49 -21 c0 -5 -7 -7 -15 -4 -8 4 -15 8 -15 10 0 2 7 4 15
4 8 0 15 -4 15 -10z m-20 -80 c0 -5 -4 -10 -10 -10 -5 0 -10 5 -10 10 0 6 5
10 10 10 6 0 10 -4 10 -10z m-255 -86 c13 -5 14 -8 3 -15 -9 -6 -1 -9 22 -10
28 -1 30 -3 10 -7 -23 -4 -24 -5 -5 -13 13 -5 -9 -8 -60 -8 -44 -1 -105 -3
-135 -5 l-55 -5 58 11 c33 7 57 16 57 24 0 6 17 16 38 22 49 13 48 13 67 6z
m-2908 -30 c-3 -3 -12 -4 -19 -1 -8 3 -5 6 6 6 11 1 17 -2 13 -5z m2420 -20
c-3 -3 -12 -4 -19 -1 -8 3 -5 6 6 6 11 1 17 -2 13 -5z m-5170 -20 c-3 -3 -12
-4 -19 -1 -8 3 -5 6 6 6 11 1 17 -2 13 -5z"/>
<path d="M4258 6866 c-10 -7 -18 -16 -18 -20 0 -10 -27 -36 -37 -36 -5 0 -20
-10 -33 -22 l-25 -23 45 -5 c26 -3 62 0 85 8 23 8 60 11 86 8 31 -3 53 0 65 9
25 18 9 24 -80 27 -45 2 -71 7 -74 16 -2 7 5 12 17 12 25 0 39 20 14 21 -13 1
-11 3 7 9 24 8 24 8 -5 9 -16 0 -38 -6 -47 -13z"/>
<path d="M4443 6853 c9 -2 23 -2 30 0 6 3 -1 5 -18 5 -16 0 -22 -2 -12 -5z"/>
<path d="M4392 6718 c-14 -14 -16 -28 -2 -28 5 0 14 9 20 20 12 22 1 27 -18 8z"/>
<path d="M4465 6573 c-16 -3 -38 -11 -50 -19 -18 -14 -16 -15 35 -12 43 2 56
7 58 21 2 9 0 16 -5 16 -4 -1 -21 -4 -38 -6z"/>
<path d="M4250 6560 c0 -5 9 -10 20 -10 11 0 20 5 20 10 0 6 -9 10 -20 10 -11
0 -20 -4 -20 -10z"/>
<path d="M4360 6524 c0 -9 5 -14 12 -12 18 6 21 28 4 28 -9 0 -16 -7 -16 -16z"/>
<path d="M4266 6498 c-81 -11 -82 -18 -3 -18 36 0 68 4 72 9 9 16 -7 18 -69 9z"/>
<path d="M2010 6400 c0 -5 7 -10 16 -10 8 0 12 5 9 10 -3 6 -10 10 -16 10 -5
0 -9 -4 -9 -10z"/>
<path d="M1865 6250 c-3 -5 1 -10 10 -10 9 0 13 5 10 10 -3 6 -8 10 -10 10 -2
0 -7 -4 -10 -10z"/>
<path d="M4770 5839 c0 -5 5 -7 10 -4 6 3 10 8 10 11 0 2 -4 4 -10 4 -5 0 -10
-5 -10 -11z"/>
<path d="M870 5290 c0 -5 5 -10 11 -10 5 0 7 5 4 10 -3 6 -8 10 -11 10 -2 0
-4 -4 -4 -10z"/>
<path d="M7452 6858 c-16 -141 -10 -198 23 -198 17 0 20 74 5 150 -5 29 -5 49
2 58 8 9 6 12 -8 12 -12 0 -20 -8 -22 -22z"/>
<path d="M5373 6863 c-28 -5 -31 -33 -3 -33 24 0 70 21 70 32 0 8 -27 9 -67 1z"/>
<path d="M5353 6770 c-25 -10 -32 -40 -9 -40 22 0 80 22 96 36 12 12 9 14 -25
13 -22 0 -50 -4 -62 -9z"/>
<path d="M5355 6683 c-30 -8 -47 -25 -37 -35 12 -12 124 21 116 34 -5 8 -45 9
-79 1z"/>
<path d="M5345 6593 c-32 -5 -55 -20 -55 -36 0 -11 72 -2 102 14 19 10 16 30
-5 28 -7 -1 -25 -4 -42 -6z"/>
<path d="M7485 6579 c-16 -50 -30 -254 -19 -277 5 -9 8 -61 9 -114 0 -63 4
-101 12 -109 10 -10 12 44 11 254 0 147 -2 267 -4 267 -1 0 -6 -10 -9 -21z"/>
<path d="M5310 6501 c-14 -4 -27 -15 -28 -25 -3 -13 0 -17 10 -14 7 3 39 11
71 18 31 6 55 16 52 21 -7 10 -68 10 -105 0z"/>
<path d="M5291 6411 c-23 -15 5 -23 54 -15 25 3 45 10 45 15 0 11 -81 11 -99
0z"/>
<path d="M4835 6291 c-10 -17 12 -21 25 -6 10 12 10 15 -3 15 -9 0 -18 -4 -22
-9z"/>
<path d="M2950 6075 c-16 -19 -8 -69 11 -73 17 -3 44 47 37 69 -6 17 -35 20
-48 4z"/>
<path d="M7478 5971 c-22 -51 -20 -114 5 -119 15 -3 17 6 17 77 0 45 -1 81 -3
81 -1 0 -10 -18 -19 -39z"/>
<path d="M3040 5875 c0 -8 2 -15 4 -15 2 0 6 7 10 15 3 8 1 15 -4 15 -6 0 -10
-7 -10 -15z"/>
<path d="M2957 5853 c-4 -3 -7 -13 -7 -21 0 -12 3 -12 15 -2 8 7 15 16 15 21
0 11 -14 12 -23 2z"/>
<path d="M3412 5828 c-17 -17 -15 -45 4 -52 29 -11 34 -6 34 29 0 36 -15 46
-38 23z"/>
<path d="M4353 5821 c-7 -12 -13 -30 -13 -40 0 -11 -4 -23 -10 -26 -13 -8 -13
-35 -1 -35 5 0 19 14 32 31 17 24 20 36 13 60 -9 29 -9 29 -21 10z"/>
<path d="M2090 5819 c0 -13 41 -59 52 -59 5 0 7 8 5 19 -5 33 -57 70 -57 40z"/>
<path d="M4280 5789 c0 -11 5 -17 10 -14 6 3 10 13 10 21 0 8 -4 14 -10 14 -5
0 -10 -9 -10 -21z"/>
<path d="M1920 5777 c0 -7 14 -26 30 -42 24 -23 30 -36 28 -64 -3 -30 1 -36
22 -41 15 -4 25 -13 26 -25 2 -45 5 -52 30 -64 24 -10 26 -10 21 6 -16 51 -35
95 -45 105 -7 7 -12 21 -12 32 0 11 -19 40 -42 63 -44 45 -58 52 -58 30z"/>
<path d="M2015 5780 c-3 -5 -1 -11 4 -14 4 -3 19 -33 31 -66 23 -60 36 -73 47
-45 3 9 15 15 27 13 13 -2 21 2 21 12 0 8 -7 15 -15 15 -8 0 -30 19 -48 42
-35 43 -58 58 -67 43z"/>
<path d="M3576 5771 c-3 -4 2 -17 10 -27 9 -10 13 -13 9 -6 -3 6 -2 12 4 12 6
0 8 7 5 15 -7 17 -20 20 -28 6z"/>
<path d="M2148 5743 c7 -3 16 -2 19 1 4 3 -2 6 -13 5 -11 0 -14 -3 -6 -6z"/>
<path d="M2195 5710 c-7 -12 2 -30 16 -30 12 0 12 27 0 35 -5 3 -12 1 -16 -5z"/>
<path d="M2851 5674 c0 -11 3 -14 6 -6 3 7 2 16 -1 19 -3 4 -6 -2 -5 -13z"/>
<path d="M2270 5641 c0 -22 5 -43 10 -46 6 -4 10 10 10 34 0 22 -4 43 -10 46
-6 4 -10 -10 -10 -34z"/>
<path d="M2575 5670 c-3 -5 -1 -10 4 -10 6 0 11 5 11 10 0 6 -2 10 -4 10 -3 0
-8 -4 -11 -10z"/>
<path d="M2780 5655 c0 -8 2 -15 4 -15 2 0 6 7 10 15 3 8 1 15 -4 15 -6 0 -10
-7 -10 -15z"/>
<path d="M2155 5650 c3 -5 8 -10 11 -10 2 0 4 5 4 10 0 6 -5 10 -11 10 -5 0
-7 -4 -4 -10z"/>
<path d="M4235 5640 c-11 -5 -15 -9 -8 -9 6 -1 18 -4 27 -7 11 -4 16 -1 16 10
0 18 -6 19 -35 6z"/>
<path d="M7484 5629 c-3 -6 -1 -16 5 -22 8 -8 11 -5 11 11 0 24 -5 28 -16 11z"/>
<path d="M2640 5616 c0 -20 28 -84 40 -91 21 -13 10 -44 -17 -48 l-28 -4 33
-8 c18 -4 32 -14 32 -22 0 -17 39 -52 58 -53 6 0 12 -4 12 -10 0 -16 -66 -11
-98 7 -16 9 -34 28 -40 42 -6 14 -16 33 -21 41 -5 8 -12 24 -16 35 l-6 20 -14
-20 c-8 -11 -22 -28 -31 -37 -10 -10 -25 -35 -34 -55 -13 -31 -14 -43 -4 -73
7 -20 20 -36 31 -38 10 -2 30 -15 44 -28 14 -13 28 -21 32 -17 4 3 18 -4 31
-16 23 -22 23 -22 29 -2 3 12 0 21 -6 21 -6 0 -8 2 -6 5 11 10 86 -18 111 -42
23 -22 30 -24 43 -13 24 20 18 52 -17 82 -27 23 -30 30 -18 38 8 5 19 5 25 1
21 -16 55 -20 55 -5 0 8 -4 14 -8 14 -13 0 -43 58 -33 64 17 11 41 -6 63 -45
12 -21 25 -39 30 -39 17 0 18 27 3 56 -8 16 -15 34 -15 39 0 6 -9 16 -20 23
-20 12 -20 13 5 46 14 18 25 39 24 47 0 8 -5 3 -10 -11 -7 -18 -12 -21 -18
-11 -14 22 -45 8 -51 -23 -4 -27 -7 -28 -20 -14 -22 22 -59 40 -69 33 -19 -11
-39 8 -45 43 -8 55 -56 112 -56 68z"/>
<path d="M2608 5559 c-24 -13 -23 -29 2 -29 13 0 20 7 20 20 0 23 1 23 -22 9z"/>
<path d="M3740 5495 c0 -34 4 -45 15 -45 23 0 29 26 15 60 -18 43 -30 37 -30
-15z"/>
<path d="M2500 5505 c0 -8 7 -15 15 -15 9 0 12 6 9 15 -4 8 -10 15 -15 15 -5
0 -9 -7 -9 -15z"/>
<path d="M3053 5513 c-19 -7 -16 -44 5 -59 16 -13 16 -13 0 -14 -25 0 -23 -30
2 -30 11 0 20 -4 20 -10 0 -5 -5 -10 -10 -10 -19 0 -29 -44 -15 -66 8 -12 13
-46 12 -80 -2 -59 17 -124 35 -124 5 0 26 -16 46 -34 20 -19 38 -33 40 -32 1
2 11 26 21 54 19 50 19 52 0 73 -11 12 -17 30 -14 39 9 27 -5 51 -25 45 -29
-9 -32 11 -10 59 27 60 26 66 -15 106 -19 19 -35 41 -35 50 0 30 -27 46 -57
33z"/>
<path d="M2349 5489 c11 -32 34 -38 29 -8 -1 13 -11 25 -20 27 -15 3 -16 -1
-9 -19z"/>
<path d="M1985 5470 c-4 -6 6 -10 24 -10 16 0 34 -6 38 -13 12 -20 43 -30 36
-11 -3 7 -9 14 -14 14 -5 0 -9 7 -9 15 0 17 -65 22 -75 5z"/>
<path d="M2951 5390 c0 -29 1 -32 10 -17 7 11 7 23 0 35 -9 14 -10 11 -10 -18z"/>
<path d="M1580 5380 c0 -5 5 -10 10 -10 6 0 10 5 10 10 0 6 -4 10 -10 10 -5 0
-10 -4 -10 -10z"/>
<path d="M4490 5272 c0 -5 7 -13 16 -16 10 -4 14 -1 12 6 -5 15 -28 23 -28 10z"/>
<path d="M2395 5190 c-3 -5 -1 -10 4 -10 6 0 11 5 11 10 0 6 -2 10 -4 10 -3 0
-8 -4 -11 -10z"/>
<path d="M2848 5183 c6 -2 18 -2 25 0 6 3 1 5 -13 5 -14 0 -19 -2 -12 -5z"/>
<path d="M1605 5160 c3 -5 11 -10 16 -10 6 0 7 5 4 10 -3 6 -11 10 -16 10 -6
0 -7 -4 -4 -10z"/>
<path d="M1825 5154 c-22 -22 -20 -24 30 -24 52 0 59 13 15 28 -23 9 -33 8
-45 -4z"/>
<path d="M2355 5111 c-3 -5 0 -13 5 -16 16 -10 62 4 55 15 -8 13 -52 13 -60 1z"/>
<path d="M7473 5052 c-15 -26 -18 -43 -12 -54 6 -10 5 -26 -1 -42 -7 -19 -6
-27 5 -33 11 -6 12 -17 5 -48 -7 -31 -6 -43 5 -54 8 -8 17 -12 20 -9 3 3 4 66
3 141 l-3 136 -22 -37z"/>
<path d="M2326 5054 c-10 -25 1 -33 45 -29 50 3 60 12 35 31 -27 19 -72 18
-80 -2z"/>
<path d="M2880 5009 c0 -4 -6 -6 -12 -6 -40 4 -148 -18 -207 -42 -77 -31 -231
-119 -231 -131 0 -11 86 -80 99 -80 6 0 17 -12 23 -26 7 -14 28 -43 47 -63 20
-21 42 -46 49 -55 7 -8 25 -19 40 -22 15 -4 40 -18 55 -31 33 -27 52 -29 61
-7 4 11 10 13 19 7 15 -12 66 -8 81 7 5 5 21 10 35 10 13 0 32 6 40 14 12 10
28 12 66 6 28 -4 54 -4 59 0 4 5 23 6 41 3 44 -7 55 15 50 93 -4 56 -18 97
-71 209 -45 95 -59 105 -157 113 -48 4 -87 5 -87 1z m-5 -194 c0 -23 -5 -31
-22 -33 -17 -3 -24 3 -29 22 -8 32 3 48 29 44 17 -2 22 -10 22 -33z m253 -49
c3 -11 -2 -24 -10 -30 -8 -6 -17 -19 -21 -28 -10 -27 -28 -21 -22 7 3 14 7 37
10 51 7 30 38 30 43 0z m-110 -53 c3 -22 -22 -48 -38 -38 -14 8 -13 38 2 53
16 16 32 10 36 -15z m-110 -63 c6 0 12 -8 12 -19 0 -14 -10 -21 -35 -25 -42
-8 -115 10 -115 28 0 22 11 26 69 21 31 -2 62 -4 69 -5z m69 -6 c1 -5 -2 -16
-7 -24 -12 -20 -35 2 -26 25 6 17 27 16 33 -1z"/>
<path d="M2372 4644 c-18 -13 -21 -19 -11 -30 6 -8 10 -16 8 -17 -2 -1 -17 -9
-33 -17 l-28 -15 35 -15 c35 -16 36 -17 17 -33 -26 -22 -26 -47 0 -47 11 0 20
-7 20 -15 0 -11 12 -15 45 -15 25 0 45 -4 45 -8 0 -11 -47 -52 -60 -52 -6 0
-10 -5 -10 -12 0 -6 -3 -8 -7 -4 -4 4 -8 15 -8 23 0 9 -6 18 -12 20 -8 3 -13
-4 -13 -15 0 -11 -6 -23 -12 -25 -7 -3 -2 -6 10 -6 15 -1 26 -9 29 -20 5 -19
6 -19 61 0 67 23 88 24 96 4 8 -22 36 -18 36 5 0 13 7 20 20 20 10 0 24 9 30
20 6 11 15 18 21 15 5 -4 12 1 15 9 3 9 10 14 14 11 5 -3 3 10 -2 29 -9 29
-17 35 -47 41 -20 4 -45 14 -56 24 -11 10 -40 24 -65 31 -50 15 -100 61 -100
91 0 23 -9 24 -38 3z m165 -260 c-3 -3 -12 -4 -19 -1 -8 3 -5 6 6 6 11 1 17
-2 13 -5z"/>
<path d="M1620 4590 c0 -5 5 -10 10 -10 6 0 10 5 10 10 0 6 -4 10 -10 10 -5 0
-10 -4 -10 -10z"/>
<path d="M2704 4514 c-4 -17 -1 -31 9 -42 15 -14 16 -12 14 26 -1 47 -13 55
-23 16z"/>
<path d="M1760 4464 c0 -14 3 -14 15 -4 8 7 15 14 15 16 0 2 -7 4 -15 4 -8 0
-15 -7 -15 -16z"/>
<path d="M4461 4396 c-9 -11 -14 -39 -13 -76 1 -67 -7 -76 -27 -27 l-12 32
-10 -25 c-19 -46 16 -164 61 -205 11 -10 20 -26 20 -36 0 -10 14 -30 31 -46
17 -15 42 -38 56 -51 18 -17 32 -22 49 -18 23 6 33 30 16 38 -17 7 -93 114
-119 166 -23 46 -28 74 -33 160 -4 92 -7 103 -19 88z"/>
<path d="M3821 4350 c-24 -28 -50 -50 -59 -50 -22 0 -27 -54 -7 -70 8 -7 15
-22 14 -34 -1 -19 -2 -18 -8 4 -7 23 -8 21 -15 -17 -8 -46 -13 -48 -66 -33
-22 6 -38 6 -44 0 -19 -19 -52 -10 -90 25 -36 33 -40 55 -10 55 17 0 19 20 2
21 -7 0 -29 2 -48 4 -40 4 -70 -9 -70 -30 0 -8 -11 -17 -25 -21 -16 -4 -25
-13 -25 -25 0 -10 -4 -19 -10 -19 -9 0 -7 -35 6 -79 5 -17 4 -22 -4 -17 -6 3
-16 -2 -21 -13 -6 -11 -24 -22 -41 -26 -23 -5 -30 -12 -30 -31 0 -17 6 -24 19
-24 14 0 18 5 14 20 -4 16 0 20 20 20 15 0 32 9 41 22 17 24 31 17 38 -17 2
-10 14 -22 28 -26 14 -4 20 -7 13 -8 -6 -1 -13 -11 -15 -23 -5 -33 -54 -55
-110 -50 -52 5 -78 -8 -78 -38 0 -10 6 -23 14 -29 11 -10 17 -8 25 6 9 17 10
17 16 1 12 -30 -2 -51 -24 -38 -30 16 -39 12 -56 -19 -8 -16 -25 -33 -37 -37
-21 -6 -57 -41 -58 -56 0 -4 11 -10 25 -14 14 -3 25 -11 25 -16 0 -6 11 -7 24
-4 15 4 26 1 28 -6 2 -6 13 -13 24 -16 30 -6 138 -9 149 -3 16 8 46 12 111 15
36 1 69 8 79 16 24 20 114 19 145 -3 13 -9 37 -17 53 -17 16 0 37 -4 47 -10
15 -8 23 -4 42 20 22 28 28 30 66 24 43 -7 53 -17 27 -28 -8 -3 -15 -13 -15
-22 0 -27 -30 -69 -68 -94 -21 -14 -39 -27 -42 -30 -19 -19 -57 -30 -104 -30
-29 0 -67 -7 -82 -15 -34 -17 -70 -19 -79 -5 -4 7 -11 8 -18 1 -16 -12 -69
-17 -84 -8 -7 4 -23 5 -36 2 -19 -5 -25 -2 -30 14 -3 13 -13 21 -26 21 -12 0
-21 4 -21 9 0 14 -50 23 -64 12 -9 -7 -16 -7 -24 1 -6 6 -36 12 -66 13 -29 0
-61 6 -70 14 -12 10 -23 11 -47 2 -33 -11 -79 -5 -79 10 0 5 -7 9 -15 9 -8 0
-15 -4 -15 -9 0 -5 -9 -13 -21 -16 -15 -5 -17 -10 -9 -20 17 -21 1 -45 -31
-45 -18 0 -32 -6 -36 -16 -5 -13 -8 -13 -27 3 -21 19 -93 23 -128 9 -9 -4 -35
1 -61 13 -59 27 -60 27 -52 -9 8 -37 0 -38 -31 -5 -26 28 -59 33 -68 10 -9
-24 -34 -17 -50 14 -9 16 -26 31 -40 35 -27 7 -84 -2 -92 -15 -2 -4 -16 -3
-30 3 -19 9 -30 9 -45 0 -28 -18 -60 -15 -85 9 -19 18 -27 19 -58 10 -20 -5
-45 -20 -56 -33 l-19 -23 -1 28 c0 17 -5 27 -15 27 -10 0 -15 -10 -15 -30 0
-16 5 -30 11 -30 7 0 9 -10 7 -25 -3 -16 1 -30 13 -41 11 -10 19 -23 19 -30 0
-8 14 -21 30 -29 104 -54 204 -132 243 -188 18 -27 47 -37 47 -16 0 13 24 9
90 -16 36 -13 65 -15 140 -11 127 9 272 12 288 8 6 -2 12 -8 12 -12 0 -5 4
-20 10 -35 8 -22 12 -24 29 -13 16 10 25 6 62 -23 24 -18 48 -39 52 -46 16
-26 37 -14 37 21 0 18 7 39 16 47 9 7 13 21 10 35 -8 32 19 52 42 31 10 -9 37
-19 60 -23 23 -4 42 -10 42 -15 0 -5 4 -9 10 -9 5 0 14 18 20 40 6 23 16 40
23 39 31 -4 48 3 71 28 l25 27 11 -29 c15 -39 32 -20 40 43 l5 47 53 -3 c40
-2 67 3 105 22 29 13 72 27 97 31 25 4 73 20 106 36 34 16 70 29 80 29 26 0
48 16 40 28 -7 12 59 72 80 72 8 0 12 5 9 10 -3 6 -1 10 4 10 6 0 11 -5 11
-11 0 -6 6 -9 13 -6 8 3 13 -7 15 -31 3 -39 17 -62 38 -62 8 0 14 -9 14 -20 0
-11 4 -28 9 -38 5 -9 12 -25 15 -34 3 -11 11 -15 21 -12 9 4 21 -1 29 -11 13
-18 30 -16 114 16 13 5 31 9 41 9 16 0 17 17 15 260 -1 142 -5 268 -9 280 -8
24 -27 26 -61 4 -13 -9 -27 -14 -31 -10 -4 3 -13 0 -22 -8 -17 -15 -168 -29
-176 -16 -3 4 -18 10 -35 13 -29 6 -35 17 -32 60 1 9 -4 17 -11 17 -6 0 -23
18 -37 40 -13 22 -30 40 -37 40 -7 0 -13 5 -13 10 0 6 5 10 10 10 6 0 10 9 10
20 0 14 10 22 39 30 50 13 73 60 30 60 -14 0 -19 5 -16 15 4 8 2 17 -3 20 -6
4 -10 21 -10 40 0 60 -52 158 -91 170 -11 4 -17 10 -14 15 3 5 1 11 -3 14 -5
3 -28 -17 -51 -44z m-41 -101 c0 -5 -4 -9 -10 -9 -5 0 -10 7 -10 16 0 8 5 12
10 9 6 -3 10 -10 10 -16z m-358 -101 c6 -16 -1 -38 -12 -38 -10 0 -20 37 -12
44 9 10 20 7 24 -6z m100 -82 c11 -26 5 -56 -12 -56 -15 0 -34 46 -27 64 9 23
26 19 39 -8z m-79 -21 c4 -8 2 -17 -3 -20 -6 -4 -10 3 -10 14 0 25 6 27 13 6z
m71 -104 c3 -5 0 -11 -8 -14 -8 -3 -17 1 -20 9 -6 15 19 20 28 5z m-174 -105
c0 -8 -4 -18 -10 -21 -5 -3 -10 3 -10 14 0 12 5 21 10 21 6 0 10 -6 10 -14z
m-330 -333 c41 -28 52 -53 25 -53 -9 0 -20 11 -25 25 -5 14 -16 25 -25 25 -8
0 -15 5 -15 10 0 14 12 12 40 -7z m-577 -50 c26 -8 21 -25 -18 -56 -19 -15
-35 -34 -35 -42 0 -8 -6 -15 -12 -15 -9 0 -8 -4 2 -11 13 -9 13 -10 -1 -6 -9
3 -21 1 -25 -3 -15 -15 -54 1 -60 25 -11 46 0 66 51 96 28 15 57 26 65 22 8
-3 23 -8 33 -10z m-179 -99 c10 -27 -3 -30 -26 -6 l-22 22 21 0 c11 0 24 -7
27 -16z m47 -54 c23 -18 23 -19 4 -20 -11 0 -26 9 -33 20 -16 26 -1 26 29 0z
m74 -51 c11 -17 2 -18 -19 -3 -17 12 -17 14 -4 14 9 0 20 -5 23 -11z m740
-149 c3 -5 1 -10 -4 -10 -6 0 -11 5 -11 10 0 6 2 10 4 10 3 0 8 -4 11 -10z
m-45 -30 c0 -5 -7 -10 -16 -10 -8 0 -12 5 -9 10 3 6 10 10 16 10 5 0 9 -4 9
-10z"/>
<path d="M2311 3380 c-1 -17 17 -40 31 -40 4 0 8 5 8 10 0 6 -6 10 -14 10 -8
0 -17 8 -19 18 -4 13 -5 13 -6 2z"/>
<path d="M2315 4370 c3 -5 8 -10 11 -10 2 0 4 5 4 10 0 6 -5 10 -11 10 -5 0
-7 -4 -4 -10z"/>
<path d="M2605 4350 c-3 -5 -1 -10 4 -10 6 0 11 5 11 10 0 6 -2 10 -4 10 -3 0
-8 -4 -11 -10z"/>
<path d="M1375 4310 c3 -5 8 -10 11 -10 2 0 4 5 4 10 0 6 -5 10 -11 10 -5 0
-7 -4 -4 -10z"/>
<path d="M7399 4279 c10 -11 24 -41 30 -65 9 -37 15 -44 36 -44 29 0 41 16 25
35 -7 9 -8 15 0 20 13 8 13 45 0 45 -5 0 -10 -4 -10 -10 0 -18 -20 -11 -44 15
-13 14 -31 25 -40 25 -15 0 -15 -2 3 -21z"/>
<path d="M1052 4250 c-39 -9 -57 -24 -48 -39 12 -19 48 -12 72 15 35 37 34 38
-24 24z"/>
<path d="M7020 4235 c-7 -8 -18 -15 -26 -15 -20 0 -26 -17 -14 -40 6 -11 21
-20 33 -20 49 1 90 69 51 84 -23 9 -30 8 -44 -9z"/>
<path d="M7370 4105 c-10 -12 -9 -16 3 -21 20 -7 37 3 37 22 0 18 -24 18 -40
-1z"/>
<path d="M7311 4043 c-18 -39 4 -56 29 -23 25 32 25 50 2 50 -11 0 -24 -12
-31 -27z"/>
<path d="M7130 4000 c0 -5 5 -10 10 -10 6 0 10 5 10 10 0 6 -4 10 -10 10 -5 0
-10 -4 -10 -10z"/>
<path d="M4660 3921 c0 -13 6 -21 16 -21 9 0 24 -10 35 -22 10 -13 18 -18 19
-12 0 12 -24 40 -52 63 -16 12 -18 11 -18 -8z"/>
<path d="M6885 3860 c4 -6 11 -8 16 -5 14 9 11 15 -7 15 -8 0 -12 -5 -9 -10z"/>
<path d="M4750 3851 c0 -5 7 -11 15 -15 9 -3 15 0 15 9 0 8 -7 15 -15 15 -8 0
-15 -4 -15 -9z"/>
<path d="M2900 3790 c0 -5 5 -10 11 -10 5 0 7 5 4 10 -3 6 -8 10 -11 10 -2 0
-4 -4 -4 -10z"/>
<path d="M6952 3690 c0 -19 2 -27 5 -17 2 9 2 25 0 35 -3 9 -5 1 -5 -18z"/>
<path d="M1947 3523 c-23 -22 18 -81 48 -69 11 4 13 10 6 23 -5 10 -12 26 -15
36 -5 17 -27 23 -39 10z"/>
<path d="M4176 3264 c-9 -23 -2 -28 13 -10 7 8 8 17 3 20 -6 3 -13 -1 -16 -10z"/>
<path d="M6000 2910 c0 -5 5 -10 11 -10 15 0 -39 -43 -60 -48 -9 -3 -29 -5
-46 -6 -16 -1 -40 -7 -52 -14 -12 -7 -31 -12 -42 -12 -12 0 -21 -6 -21 -14 0
-22 -21 -31 -31 -14 -11 20 -57 32 -73 18 -31 -25 -179 -6 -215 28 -19 18 -81
11 -95 -11 -13 -21 4 -34 64 -53 19 -6 39 -20 45 -32 5 -12 18 -25 27 -28 20
-6 33 -61 25 -104 -4 -15 -22 -53 -41 -83 -33 -51 -38 -55 -85 -61 -60 -8 -69
-18 -39 -45 21 -20 28 -23 72 -25 13 -1 22 -15 33 -51 8 -27 21 -70 29 -95 17
-53 19 -126 3 -135 -5 -4 -14 -17 -20 -28 -13 -31 -30 -57 -61 -94 -14 -17
-29 -41 -33 -52 -3 -12 -15 -21 -25 -21 -11 0 -24 -9 -30 -19 -5 -11 -23 -22
-40 -26 -33 -7 -38 -25 -14 -50 13 -12 14 -19 5 -28 -18 -18 -13 -27 14 -27
27 0 31 -10 15 -40 -5 -10 -7 -39 -4 -64 8 -52 29 -65 77 -47 21 8 27 17 27
39 0 33 32 67 55 59 9 -4 15 -19 15 -35 0 -34 10 -44 63 -63 33 -11 39 -11 47
1 5 8 12 11 16 7 4 -4 13 -2 21 4 10 9 18 8 31 -5 20 -17 42 -21 42 -7 0 4 12
9 28 9 136 6 192 6 192 0 0 -5 9 -8 19 -8 36 0 53 -11 40 -26 -9 -11 -8 -14 2
-14 10 0 10 -3 1 -12 -14 -14 -16 -52 -2 -43 6 4 10 -7 10 -24 0 -27 4 -31 26
-31 19 0 28 -7 35 -29 11 -31 38 -44 60 -30 8 4 19 3 26 -3 18 -15 16 0 -2 18
-11 12 -12 20 -5 35 11 20 5 23 -32 20 -9 -1 -19 3 -23 9 -3 5 -15 10 -26 10
-10 0 -19 4 -19 9 0 5 -8 11 -17 14 -10 2 0 7 23 12 42 7 109 59 99 75 -3 5 7
12 22 16 15 3 33 12 38 18 6 7 18 15 28 19 9 4 22 17 27 29 14 33 33 61 49 74
8 6 15 31 16 55 3 39 10 71 40 167 5 16 4 22 -5 20 -7 -2 -15 3 -18 11 -3 10
0 12 11 8 23 -9 39 18 41 67 0 24 5 43 10 43 12 -3 24 39 24 83 0 19 -2 27 -5
18 -2 -10 -8 -18 -13 -18 -4 0 -6 -9 -3 -20 4 -16 2 -19 -11 -14 -11 4 -22 -1
-31 -12 -7 -11 -17 -15 -21 -11 -5 4 -3 12 5 16 10 7 10 12 1 28 -11 16 -10
24 5 47 10 15 26 31 36 37 12 6 19 21 19 39 0 19 5 30 14 30 7 0 19 13 26 29
6 16 18 32 26 35 11 4 13 16 8 46 -5 31 -3 44 9 53 24 19 39 109 27 163 -11
47 -7 94 13 150 5 17 7 40 3 50 -7 18 -8 18 -26 -3 -9 -12 -21 -19 -24 -15 -4
3 -4 -1 0 -11 5 -14 0 -17 -30 -17 -20 0 -36 -5 -36 -11 0 -6 -9 -9 -19 -6
-10 2 -25 1 -32 -4 -10 -6 -5 -11 16 -20 21 -8 26 -13 15 -17 -8 -3 -19 -11
-25 -18 -14 -18 -63 -35 -70 -24 -3 5 -1 11 5 15 15 10 12 21 -16 54 -16 19
-39 33 -62 37 -20 4 -43 13 -50 21 -8 8 -36 13 -72 13 -49 0 -61 3 -70 20 -11
21 -40 28 -40 10z m436 -178 c6 -4 13 -15 17 -24 5 -15 1 -18 -23 -18 -22 0
-30 5 -30 18 0 29 15 39 36 24z m-442 -18 c50 -7 66 -34 21 -34 -14 0 -28 -6
-31 -14 -3 -8 -21 -17 -40 -20 -26 -5 -40 -2 -63 15 -16 12 -34 19 -39 15 -5
-3 -15 1 -22 9 -9 11 -5 15 27 20 21 4 43 8 48 10 17 6 50 5 99 -1z m366 -239
c0 -8 -4 -15 -10 -15 -5 0 -7 7 -4 15 4 8 8 15 10 15 2 0 4 -7 4 -15z m-100
-56 c0 -20 -15 -26 -24 -10 -8 13 4 42 15 35 5 -3 9 -14 9 -25z m-58 -14 c-2
-14 -8 -25 -13 -25 -12 0 -11 7 1 31 14 26 18 24 12 -6z m-507 -394 c-7 -13
-90 -25 -104 -16 -23 14 2 25 55 25 32 0 53 -4 49 -9z m-173 -43 c-9 -9 -15
-9 -24 0 -9 9 -7 12 12 12 19 0 21 -3 12 -12z m8 -57 c9 -3 -73 -41 -86 -41
-19 0 -27 19 -14 34 9 12 68 15 100 7z m293 -8 c-7 -2 -19 -2 -25 0 -7 3 -2 5
12 5 14 0 19 -2 13 -5z"/>
<path d="M5206 1793 c-36 -19 -17 -35 27 -22 36 10 41 14 32 28 -8 14 -23 12
-59 -6z"/>
<path d="M5040 1792 c0 -18 44 -33 81 -27 67 12 43 35 -37 35 -24 0 -44 -3
-44 -8z"/>
<path d="M5227 1703 c-4 -3 -7 -24 -7 -45 0 -21 -4 -38 -9 -38 -5 0 -13 -9
-16 -20 -8 -26 -49 -70 -78 -84 -28 -15 -28 -40 0 -44 17 -3 26 5 38 33 13 31
19 36 38 31 39 -9 63 23 71 95 4 45 3 65 -6 71 -16 10 -23 10 -31 1z"/>
<path d="M5840 1570 c0 -5 4 -10 9 -10 6 0 13 5 16 10 3 6 -1 10 -9 10 -9 0
-16 -4 -16 -10z"/>
<path d="M4684 1475 c-10 -25 12 -33 57 -21 38 10 53 26 25 26 -7 0 -27 3 -45
6 -24 5 -32 2 -37 -11z"/>
<path d="M4575 1420 c-4 -6 -43 -8 -102 -4 -122 7 -153 0 -153 -32 0 -20 5
-24 33 -26 17 0 42 0 55 1 13 1 39 -3 58 -9 30 -10 42 -9 85 9 27 12 54 19 59
16 13 -8 13 11 0 36 -12 21 -25 25 -35 9z"/>
<path d="M6145 1380 c-4 -6 -14 -9 -22 -6 -26 10 -35 -5 -18 -30 12 -19 13
-25 3 -29 -57 -20 -68 -26 -68 -39 0 -7 -16 -21 -36 -31 -20 -9 -44 -25 -55
-36 -10 -10 -30 -21 -44 -25 -27 -7 -34 -24 -10 -24 8 0 15 6 16 13 0 6 4 2 9
-11 9 -21 14 -22 62 -16 39 4 59 13 73 30 12 13 26 24 33 24 19 0 43 45 45 84
2 34 3 35 39 31 21 -2 42 -7 48 -10 6 -4 22 5 36 20 19 21 22 29 12 39 -7 6
-22 13 -33 14 -11 0 -34 4 -51 8 -20 4 -34 2 -39 -6z"/>
<path d="M4608 1200 c-16 -16 -34 -30 -39 -30 -5 0 -9 -7 -9 -15 0 -15 31 -21
44 -8 8 9 69 31 125 47 72 21 63 36 -19 36 -66 0 -74 -2 -102 -30z"/>
<path d="M4340 1210 c0 -5 7 -10 16 -10 8 0 12 5 9 10 -3 6 -10 10 -16 10 -5
0 -9 -4 -9 -10z"/>
<path d="M4440 1126 c0 -19 -5 -26 -20 -26 -26 0 -26 -36 0 -70 l19 -25 21 23
c27 29 26 115 -2 120 -13 3 -18 -3 -18 -22z"/>
<path d="M5753 1128 c-4 -7 -8 -17 -8 -23 0 -5 -19 -14 -43 -19 -23 -5 -41
-14 -39 -20 5 -16 97 -21 97 -5 0 8 16 10 55 6 30 -3 54 -2 54 1 -1 4 0 9 1
12 9 23 6 38 -6 33 -8 -3 -25 2 -39 11 -29 19 -61 21 -72 4z"/>
<path d="M6348 1124 c-5 -4 -8 -16 -8 -28 0 -14 3 -17 11 -9 6 6 9 19 7 28 -1
9 -6 13 -10 9z"/>
<path d="M6095 1040 c3 -5 10 -10 16 -10 5 0 9 5 9 10 0 6 -7 10 -16 10 -8 0
-12 -4 -9 -10z"/>
<path d="M265 971 c-3 -5 -1 -12 5 -16 5 -3 10 1 10 9 0 18 -6 21 -15 7z"/>
<path d="M297 932 c-16 -3 -17 -11 -11 -75 4 -46 14 -81 25 -96 17 -21 19 -22
20 -5 0 11 2 53 4 96 5 79 0 89 -38 80z"/>
<path d="M4700 853 c0 -10 5 -25 10 -33 7 -11 10 -7 10 18 0 17 -4 32 -10 32
-5 0 -10 -8 -10 -17z"/>
<path d="M5802 828 c4 -29 38 -38 38 -10 0 11 -7 23 -16 26 -24 9 -26 8 -22
-16z"/>
<path d="M5453 650 c0 -23 5 -30 21 -30 15 0 17 3 8 12 -7 7 -12 20 -12 30 0
10 -4 18 -8 18 -5 0 -9 -13 -9 -30z"/>
<path d="M2458 633 c7 -3 16 -2 19 1 4 3 -2 6 -13 5 -11 0 -14 -3 -6 -6z"/>
<path d="M1168 593 c6 -2 18 -2 25 0 6 3 1 5 -13 5 -14 0 -19 -2 -12 -5z"/>
<path d="M258 573 c12 -2 32 -2 45 0 12 2 2 4 -23 4 -25 0 -35 -2 -22 -4z"/>
</g>
</svg>
